<svg width="551" height="581" xmlns="http://www.w3.org/2000/svg" xmlns:xlink="http://www.w3.org/1999/xlink" overflow="hidden"><g transform="translate(-367 -78)"><g><g><path d="M432.782 450.209 386.054 434.961 417.253 253.668C425.264 223.523 457.517 206.308 487.592 216.075L487.592 216.075C517.807 225.912 533.196 258.939 521.039 287.889L432.782 450.209Z" fill="#FFFBF7" transform="matrix(1 0 0 1.00141 280.064 -0.288795)"/><path d="M432.782 452.738C432.501 452.738 432.29 452.668 432.009 452.598L385.281 437.35C384.086 436.928 383.384 435.734 383.594 434.539L414.794 253.247C414.794 253.177 414.794 253.106 414.864 253.036 418.869 237.928 428.777 225.421 442.62 217.902 456.603 210.313 473.257 208.767 488.435 213.756 503.683 218.745 516.12 229.848 522.726 244.182 529.261 258.517 529.542 274.468 523.428 288.943 523.428 289.013 523.358 289.084 523.288 289.154L434.961 451.403C434.539 452.247 433.625 452.738 432.782 452.738ZM388.935 433.204 431.517 447.117 518.72 286.835C524.201 273.625 523.99 259.22 518.018 246.22 512.045 233.15 500.661 223.031 486.748 218.464 472.905 213.967 457.728 215.372 444.939 222.259 432.29 229.145 423.366 240.458 419.642 254.16L388.935 433.204Z" fill="#310305" transform="matrix(1 0 0 1.00141 280.064 -0.288795)"/><path d="M427.372 445.852 387.319 432.782 419.993 259.641C427.863 230.761 456.392 213.405 482.251 221.837L482.251 221.837C508.18 230.269 520.547 261.187 509.094 289.084L427.372 445.852Z" fill="#7CB862" transform="matrix(1 0 0 1.00141 280.064 -0.288795)"/><path d="M396.243 435.734 387.319 432.782 418.939 255.285C436.788 202.021 482.181 221.837 482.181 221.837L482.181 221.837C477.332 224.929 440.441 201.459 422.031 297.446L396.243 435.734Z" fill="#508138" transform="matrix(1 0 0 1.00141 280.064 -0.288795)"/><path d="M408.048 444.377C407.837 444.377 407.556 444.306 407.345 444.236 406.151 443.814 405.518 442.55 405.94 441.425L445.501 323.796C445.922 322.602 447.187 321.969 448.312 322.391 449.506 322.812 450.138 324.077 449.717 325.202L410.086 442.831C409.805 443.814 408.961 444.377 408.048 444.377Z" fill="#310305" transform="matrix(1 0 0 1.00141 280.064 -0.288795)"/><path d="M399.405 441.566C399.264 441.566 399.124 441.566 398.983 441.566 397.789 441.355 396.945 440.16 397.156 438.966L411.421 359.492C411.632 358.298 412.826 357.455 414.021 357.665 415.215 357.876 416.058 359.071 415.848 360.265L401.583 439.739C401.443 440.793 400.459 441.566 399.405 441.566Z" fill="#310305" transform="matrix(1 0 0 1.00141 280.064 -0.288795)"/><path d="M417.323 446.414C416.972 446.414 416.621 446.344 416.269 446.133 415.145 445.571 414.723 444.236 415.356 443.112L444.236 388.302C444.798 387.178 446.133 386.757 447.258 387.389 448.382 387.951 448.803 389.286 448.171 390.41L419.291 445.22C418.939 445.993 418.166 446.414 417.323 446.414Z" fill="#310305" transform="matrix(1 0 0 1.00141 280.064 -0.288795)"/><path d="M392.167 413.318 322.883 413.318 282.9 163.444C280.019 120.721 315.364 84.5327 359.984 84.5327L359.984 84.5327C404.815 84.5327 440.231 121.072 436.998 164.076L392.167 413.318Z" fill="#FFFBF7" transform="matrix(1 0 0 1.00141 280.064 -0.288795)"/><path d="M392.167 416.831 322.883 416.831C321.126 416.831 319.65 415.567 319.369 413.88L279.387 164.006C279.387 163.866 279.387 163.795 279.316 163.655 277.911 142.574 285.219 122.337 299.905 106.667 315.223 90.2947 337.077 80.949 359.984 80.949 382.962 80.949 404.956 90.4353 420.274 106.948 434.961 122.759 442.128 143.136 440.582 164.287 440.582 164.428 440.582 164.498 440.512 164.639L395.61 413.95C395.329 415.637 393.854 416.831 392.167 416.831ZM325.904 409.805 389.216 409.805 433.555 163.585C434.961 144.472 428.426 126.061 415.145 111.727 401.162 96.6189 381.065 87.9759 360.055 87.9759 339.115 87.9759 319.158 96.5486 305.175 111.445 291.894 125.64 285.289 143.909 286.484 162.952L325.904 409.805Z" fill="#310305" transform="matrix(1 0 0 1.00141 280.064 -0.288795)"/><path d="M383.032 409.945 323.585 409.945 289.294 170.119C286.835 129.083 317.191 94.3703 355.487 94.3703L355.487 94.3703C393.994 94.3703 424.35 129.504 421.61 170.682L383.032 409.945Z" fill="#7CB862" transform="matrix(1 0 0 1.00141 280.064 -0.288795)"/><path d="M336.866 409.945 323.585 409.945 285.992 164.92C285.851 87.8353 355.487 94.3 355.487 94.3L355.487 94.3C350.428 100.413 290.489 85.5165 309.04 218.534L336.866 409.945Z" fill="#508138" transform="matrix(1 0 0 1.00141 280.064 -0.288795)"/><path d="M355.487 416.41C353.801 416.41 352.395 415.004 352.395 413.318L352.395 242.988C352.395 241.301 353.801 239.896 355.487 239.896 357.174 239.896 358.579 241.301 358.579 242.988L358.579 413.318C358.579 415.004 357.174 416.41 355.487 416.41Z" fill="#310305" transform="matrix(1 0 0 1.00141 280.064 -0.288795)"/><path d="M342.698 416.41C341.152 416.41 339.888 415.285 339.607 413.74L322.883 303.91C322.602 302.224 323.796 300.608 325.483 300.327 327.169 300.046 328.785 301.24 329.066 302.927L345.79 412.756C346.071 414.442 344.877 416.058 343.19 416.339 342.979 416.41 342.839 416.41 342.698 416.41Z" fill="#310305" transform="matrix(1 0 0 1.00141 280.064 -0.288795)"/><path d="M368.838 415.145C368.698 415.145 368.487 415.145 368.346 415.075 366.66 414.794 365.465 413.177 365.817 411.491L379.73 327.661C380.011 325.974 381.627 324.85 383.313 325.131 385 325.412 386.194 327.029 385.843 328.715L371.93 412.545C371.649 414.091 370.384 415.145 368.838 415.145Z" fill="#310305" transform="matrix(1 0 0 1.00141 280.064 -0.288795)"/><path d="M353.028 426.458 301.17 445.29 199.421 264.419C185.016 232.377 201.038 195.065 234.485 182.908L234.485 182.908C268.073 170.752 305.105 189.162 315.083 223.031L353.028 426.458Z" fill="#FFFBF7" transform="matrix(1 0 0 1.00141 280.064 -0.288795)"/><path d="M301.17 448.101C300.186 448.101 299.202 447.539 298.71 446.625L196.892 265.825C196.821 265.755 196.821 265.684 196.751 265.614 189.514 249.523 189.303 231.745 196.189 215.443 203.075 199.14 216.637 186.351 233.431 180.238 250.366 174.125 269.198 175.249 285.219 183.33 301.17 191.411 312.694 205.183 317.683 222.188 317.683 222.259 317.753 222.399 317.753 222.469L355.768 425.896C356.049 427.301 355.276 428.636 353.941 429.128L302.083 447.96C301.802 448.101 301.451 448.101 301.17 448.101ZM201.951 263.155 302.435 441.777 349.795 424.631 312.272 223.734C307.705 208.345 297.235 195.838 282.759 188.53 268.144 181.152 250.928 180.098 235.469 185.649 219.94 191.27 207.854 202.654 201.529 217.691 195.205 232.447 195.416 248.539 201.951 263.155Z" fill="#310305" transform="matrix(1 0 0 1.00141 280.064 -0.288795)"/><path d="M345.228 426.388 300.678 442.55 206.097 267.792C192.465 236.945 205.183 202.092 233.853 191.692L233.853 191.692C262.663 181.222 295.548 199.913 305.316 232.307L345.228 426.388Z" fill="#7CB862" transform="matrix(1 0 0 1.00141 280.064 -0.288795)"/><path d="M310.656 438.896 300.678 442.479 202.092 264.701C179.816 205.605 233.853 191.692 233.853 191.692L233.853 191.692C231.815 197.735 182.697 202.583 234.766 299.624L310.656 438.896Z" fill="#508138" transform="matrix(1 0 0 1.00141 280.064 -0.288795)"/><path d="M325.553 438.966C324.499 438.966 323.585 438.333 323.164 437.35L274.187 306.651C273.695 305.316 274.327 303.91 275.662 303.418 276.998 302.927 278.403 303.559 278.895 304.894L327.872 435.593C328.364 436.928 327.731 438.333 326.396 438.825 326.115 438.896 325.834 438.966 325.553 438.966Z" fill="#310305" transform="matrix(1 0 0 1.00141 280.064 -0.288795)"/><path d="M315.996 442.409C315.083 442.409 314.24 441.917 313.818 441.144L269.76 361.46C269.057 360.265 269.549 358.72 270.744 358.017 271.938 357.314 273.484 357.806 274.187 359.001L318.245 438.685C318.948 439.879 318.456 441.425 317.261 442.128 316.84 442.339 316.418 442.409 315.996 442.409Z" fill="#310305" transform="matrix(1 0 0 1.00141 280.064 -0.288795)"/><path d="M335.18 434.328C333.985 434.328 332.931 433.485 332.72 432.29L319.018 364.2C318.737 362.865 319.65 361.53 320.985 361.249 322.321 360.968 323.656 361.882 323.937 363.217L337.639 431.307C337.92 432.642 337.007 433.977 335.672 434.258 335.531 434.328 335.39 434.328 335.18 434.328Z" fill="#310305" transform="matrix(1 0 0 1.00141 280.064 -0.288795)"/><path d="M426.809 641.549 292.457 641.549C275.592 641.549 261.117 629.674 258.095 613.372L225.421 437.561 493.916 437.561 461.241 613.372C458.149 629.674 443.674 641.549 426.809 641.549Z" fill="#8D5724" transform="matrix(1 0 0 1.00141 280.064 -0.288795)"/><path d="M426.809 644.009 292.457 644.009C274.398 644.009 258.868 631.29 255.636 613.793L222.961 437.982C222.821 437.279 223.031 436.507 223.523 435.944 224.015 435.382 224.718 435.031 225.421 435.031L493.916 435.031C494.689 435.031 495.321 435.382 495.813 435.944 496.305 436.507 496.445 437.279 496.375 437.982L463.7 613.793C460.398 631.29 444.939 644.009 426.809 644.009ZM228.372 440.02 260.484 612.88C263.295 628.058 276.716 639.02 292.457 639.02L426.809 639.02C442.479 639.02 455.971 627.987 458.782 612.88L490.894 440.02 228.372 440.02Z" fill="#310305" transform="matrix(1 0 0 1.00141 280.064 -0.288795)"/><path d="M258.025 613.372C261.047 629.674 275.522 641.549 292.386 641.549L426.739 641.549C443.604 641.549 458.079 629.674 461.1 613.372L463.56 600.021C432.361 635.998 325.483 638.879 300.537 606.415 283.462 584.21 278.192 514.153 276.646 465.738L488.505 465.738 493.775 437.561 225.35 437.561 258.025 613.372Z" fill="#6C341B" transform="matrix(1 0 0 1.00141 280.064 -0.288795)"/><path d="M426.809 644.009 292.457 644.009C274.398 644.009 258.868 631.29 255.636 613.793L222.961 437.982C222.821 437.279 223.031 436.507 223.523 435.944 224.015 435.382 224.718 435.031 225.421 435.031L493.916 435.031C494.689 435.031 495.321 435.382 495.813 435.944 496.305 436.507 496.445 437.279 496.375 437.982L463.7 613.793C460.398 631.29 444.939 644.009 426.809 644.009ZM228.372 440.02 260.484 612.88C263.295 628.058 276.716 639.02 292.457 639.02L426.809 639.02C442.479 639.02 455.971 627.987 458.782 612.88L490.894 440.02 228.372 440.02Z" fill="#310305" transform="matrix(1 0 0 1.00141 280.064 -0.288795)"/><path d="M492.089 447.258 227.177 447.258C215.443 447.258 205.956 437.771 205.956 426.036L205.956 400.108C205.956 388.373 215.443 378.887 227.177 378.887L492.089 378.887C503.823 378.887 513.31 388.373 513.31 400.108L513.31 426.036C513.239 437.771 503.753 447.258 492.089 447.258Z" fill="#8D5724" transform="matrix(1 0 0 1.00141 280.064 -0.288795)"/><path d="M492.089 449.717 227.177 449.717C214.107 449.717 203.497 439.106 203.497 426.036L203.497 400.108C203.497 387.038 214.107 376.427 227.177 376.427L492.089 376.427C505.159 376.427 515.769 387.038 515.769 400.108L515.769 426.036C515.769 439.106 505.159 449.717 492.089 449.717ZM227.177 381.416C216.848 381.416 208.486 389.778 208.486 400.108L208.486 426.036C208.486 436.366 216.848 444.728 227.177 444.728L492.089 444.728C502.418 444.728 510.78 436.366 510.78 426.036L510.78 400.108C510.78 389.778 502.418 381.416 492.089 381.416L227.177 381.416Z" fill="#310305" transform="matrix(1 0 0 1.00141 280.064 -0.288795)"/><path d="M228.512 398.07 214.318 422.242C213.264 424.069 214.529 426.318 216.637 426.318L245.096 426.318C247.204 426.318 248.539 423.999 247.415 422.242L233.22 398.07C232.096 396.313 229.566 396.313 228.512 398.07Z" fill="#F9BC43" fill-opacity="0.64" transform="matrix(1 0 0 1.00141 280.064 -0.288795)"/><path d="M245.025 427.653 216.567 427.653C215.091 427.653 213.826 426.88 213.124 425.615 212.421 424.35 212.421 422.874 213.124 421.61L227.318 397.437C228.021 396.172 229.356 395.47 230.761 395.47 232.166 395.47 233.501 396.243 234.204 397.437L248.398 421.61C249.101 422.874 249.171 424.35 248.398 425.615 247.625 426.88 246.501 427.653 245.025 427.653ZM230.831 397.999C230.55 397.999 229.988 398.07 229.566 398.702L215.372 422.874C215.021 423.507 215.232 424.069 215.372 424.35 215.513 424.561 215.864 425.053 216.637 425.053L245.096 425.053C245.869 425.053 246.22 424.561 246.361 424.35 246.501 424.139 246.712 423.577 246.361 422.874L232.166 398.702C231.674 398.07 231.042 397.999 230.831 397.999Z" fill="#310305" fill-opacity="0.64" transform="matrix(1 0 0 1.00141 280.064 -0.288795)"/><path d="M259.641 418.026 273.765 400.67C274.96 399.124 273.906 396.875 271.938 396.875L243.69 396.875C241.723 396.875 240.669 399.124 241.863 400.67L255.987 418.026C256.971 419.22 258.728 419.22 259.641 418.026Z" fill="#F4E7B4" fill-opacity="0.64" transform="matrix(1 0 0 1.00141 280.064 -0.288795)"/><path d="M257.885 420.204C256.76 420.204 255.776 419.712 255.074 418.869L240.95 401.513C240.036 400.459 239.896 398.983 240.528 397.718 241.161 396.454 242.355 395.681 243.761 395.681L272.008 395.681C273.414 395.681 274.679 396.454 275.241 397.718 275.873 398.983 275.662 400.459 274.819 401.513L260.695 418.869C259.993 419.712 258.939 420.204 257.885 420.204ZM243.761 398.14C243.198 398.14 242.917 398.562 242.847 398.702 242.777 398.913 242.636 399.335 242.988 399.826L257.112 417.183C257.393 417.534 257.744 417.534 257.885 417.534 258.025 417.534 258.447 417.464 258.658 417.183L272.781 399.826C273.133 399.405 272.992 398.913 272.922 398.702 272.852 398.491 272.571 398.14 272.008 398.14L243.761 398.14Z" fill="#310305" fill-opacity="0.64" transform="matrix(1 0 0 1.00141 280.064 -0.288795)"/><path d="M208.837 416.761 221.977 400.599C223.172 399.124 222.118 396.875 220.15 396.875L208.697 396.875" fill="#F4E7B4" fill-opacity="0.64" transform="matrix(1 0 0 1.00141 280.064 -0.288795)"/><path d="M209.821 417.604 207.854 415.988 220.994 399.826C221.345 399.405 221.204 398.983 221.134 398.772 221.064 398.632 220.783 398.21 220.15 398.21L208.697 398.21 208.697 395.61 220.15 395.61C221.556 395.61 222.821 396.383 223.453 397.648 224.015 398.913 223.875 400.318 223.031 401.443L209.821 417.604Z" fill="#310305" fill-opacity="0.64" transform="matrix(1 0 0 1.00141 280.064 -0.288795)"/><path d="M285.008 398.07 270.814 422.242C269.76 424.069 271.025 426.318 273.133 426.318L301.591 426.318C303.699 426.318 305.035 423.999 303.91 422.242L289.716 398.07C288.592 396.313 286.062 396.313 285.008 398.07Z" fill="#F9BC43" fill-opacity="0.64" transform="matrix(1 0 0 1.00141 280.064 -0.288795)"/><path d="M301.521 427.653 273.062 427.653C271.587 427.653 270.322 426.88 269.619 425.615 268.917 424.35 268.917 422.874 269.619 421.61L283.814 397.437C284.516 396.172 285.851 395.47 287.257 395.47 287.257 395.47 287.257 395.47 287.257 395.47 288.662 395.47 289.997 396.243 290.7 397.437L304.964 421.61C305.667 422.874 305.737 424.35 304.964 425.615 304.332 426.88 302.997 427.653 301.521 427.653ZM286.062 398.702 271.868 422.874C271.517 423.507 271.727 424.069 271.868 424.35 272.008 424.631 272.36 425.053 273.133 425.053L301.591 425.053C302.364 425.053 302.716 424.561 302.856 424.35 302.997 424.139 303.208 423.577 302.856 422.874L288.662 398.702C288.311 398.07 287.678 397.999 287.397 397.999L287.397 397.999C287.046 397.999 286.484 398.07 286.062 398.702L286.062 398.702Z" fill="#310305" fill-opacity="0.64" transform="matrix(1 0 0 1.00141 280.064 -0.288795)"/><path d="M316.137 418.026 330.261 400.67C331.455 399.124 330.401 396.875 328.434 396.875L300.186 396.875C298.219 396.875 297.164 399.124 298.359 400.67L312.483 418.026C313.467 419.22 315.223 419.22 316.137 418.026Z" fill="#F4E7B4" fill-opacity="0.64" transform="matrix(1 0 0 1.00141 280.064 -0.288795)"/><path d="M314.38 420.204C313.256 420.204 312.272 419.712 311.569 418.869L297.446 401.513C296.532 400.389 296.392 398.983 297.024 397.718 297.656 396.454 298.851 395.681 300.256 395.681L328.504 395.681C329.91 395.681 331.174 396.454 331.736 397.718 332.299 398.983 332.158 400.459 331.315 401.513L317.191 418.869C316.488 419.712 315.434 420.204 314.38 420.204ZM300.256 398.14C299.694 398.14 299.413 398.562 299.343 398.702 299.273 398.913 299.132 399.335 299.483 399.826L313.607 417.183C313.888 417.534 314.24 417.534 314.38 417.534 314.591 417.534 314.942 417.464 315.153 417.183L329.277 399.826C329.628 399.405 329.488 398.913 329.418 398.702 329.347 398.491 329.066 398.14 328.504 398.14L300.256 398.14Z" fill="#310305" fill-opacity="0.64" transform="matrix(1 0 0 1.00141 280.064 -0.288795)"/><path d="M339.255 398.07 325.061 422.242C324.007 424.069 325.272 426.318 327.38 426.318L355.839 426.318C357.947 426.318 359.282 423.999 358.157 422.242L343.963 398.07C342.839 396.313 340.309 396.313 339.255 398.07Z" fill="#F9BC43" fill-opacity="0.64" transform="matrix(1 0 0 1.00141 280.064 -0.288795)"/><path d="M355.768 427.653 327.31 427.653C325.834 427.653 324.569 426.88 323.866 425.615 323.164 424.35 323.164 422.874 323.866 421.61L338.061 397.437C338.763 396.172 340.098 395.47 341.504 395.47 342.909 395.47 344.244 396.243 344.947 397.437L359.141 421.61C359.844 422.874 359.914 424.35 359.141 425.615 358.368 426.88 357.244 427.653 355.768 427.653ZM340.309 398.702 326.115 422.874C325.764 423.507 325.974 424.069 326.115 424.35 326.256 424.631 326.607 425.053 327.38 425.053L355.839 425.053C356.611 425.053 356.963 424.561 357.103 424.35 357.244 424.139 357.455 423.577 357.103 422.874L342.909 398.702C342.558 398.07 341.925 397.999 341.644 397.999 341.293 397.999 340.731 398.07 340.309 398.702L340.309 398.702Z" fill="#310305" fill-opacity="0.64" transform="matrix(1 0 0 1.00141 280.064 -0.288795)"/><path d="M370.384 418.026 384.508 400.67C385.703 399.124 384.648 396.875 382.681 396.875L354.433 396.875C352.466 396.875 351.412 399.124 352.606 400.67L366.73 418.026C367.714 419.22 369.471 419.22 370.384 418.026Z" fill="#F4E7B4" fill-opacity="0.64" transform="matrix(1 0 0 1.00141 280.064 -0.288795)"/><path d="M368.627 420.204C367.503 420.204 366.519 419.712 365.817 418.869L351.693 401.513C350.779 400.389 350.639 398.983 351.271 397.718 351.903 396.454 353.098 395.681 354.503 395.681L382.751 395.681C384.157 395.681 385.421 396.454 385.984 397.718 386.616 398.983 386.405 400.459 385.562 401.513L371.438 418.869C370.735 419.712 369.681 420.204 368.627 420.204ZM354.503 398.14C353.941 398.14 353.66 398.562 353.59 398.702 353.52 398.913 353.379 399.335 353.73 399.826L367.854 417.183C368.135 417.534 368.487 417.534 368.627 417.534 368.838 417.534 369.189 417.464 369.4 417.183L383.524 399.826C383.876 399.405 383.735 398.913 383.665 398.702 383.594 398.491 383.313 398.14 382.751 398.14L354.503 398.14Z" fill="#310305" fill-opacity="0.64" transform="matrix(1 0 0 1.00141 280.064 -0.288795)"/><path d="M395.751 398.07 381.557 422.242C380.503 424.069 381.767 426.318 383.876 426.318L412.334 426.318C414.442 426.318 415.777 423.999 414.653 422.242L400.459 398.07C399.335 396.313 396.805 396.313 395.751 398.07Z" fill="#F9BC43" fill-opacity="0.64" transform="matrix(1 0 0 1.00141 280.064 -0.288795)"/><path d="M412.264 427.653 383.805 427.653C382.33 427.653 381.065 426.88 380.362 425.615 379.659 424.35 379.659 422.874 380.362 421.61L394.556 397.437C395.259 396.172 396.594 395.47 397.999 395.47 399.405 395.47 400.74 396.243 401.443 397.437L415.637 421.61C416.339 422.874 416.41 424.35 415.637 425.615 415.075 426.88 413.74 427.653 412.264 427.653ZM398.07 397.999C397.789 397.999 397.227 398.07 396.805 398.702L382.611 422.874C382.259 423.507 382.47 424.069 382.611 424.35 382.751 424.561 383.103 425.053 383.876 425.053L412.334 425.053C413.107 425.053 413.458 424.561 413.599 424.35 413.74 424.139 413.95 423.577 413.599 422.874L399.405 398.702C398.913 398.07 398.281 397.999 398.07 397.999Z" fill="#310305" fill-opacity="0.64" transform="matrix(1 0 0 1.00141 280.064 -0.288795)"/><path d="M426.88 418.026 441.004 400.67C442.198 399.124 441.144 396.875 439.177 396.875L410.929 396.875C408.961 396.875 407.907 399.124 409.102 400.67L423.226 418.026C424.21 419.22 425.966 419.22 426.88 418.026Z" fill="#F4E7B4" fill-opacity="0.64" transform="matrix(1 0 0 1.00141 280.064 -0.288795)"/><path d="M425.123 420.204C423.999 420.204 423.015 419.712 422.312 418.869L408.188 401.513C407.275 400.389 407.134 398.983 407.767 397.718 408.399 396.454 409.594 395.681 410.999 395.681L439.247 395.681C440.652 395.681 441.917 396.454 442.479 397.718 443.041 398.983 442.901 400.459 442.058 401.513L427.934 418.869C427.231 419.712 426.177 420.204 425.123 420.204ZM410.999 398.14C410.437 398.14 410.156 398.562 410.086 398.702 410.015 398.913 409.875 399.335 410.226 399.826L424.35 417.183C424.631 417.534 424.982 417.534 425.123 417.534 425.334 417.534 425.685 417.464 425.896 417.183L440.02 399.826C440.371 399.405 440.231 398.913 440.16 398.702 440.09 398.491 439.809 398.14 439.247 398.14L410.999 398.14Z" fill="#310305" fill-opacity="0.64" transform="matrix(1 0 0 1.00141 280.064 -0.288795)"/><path d="M450.49 398.07 436.296 422.242C435.242 424.069 436.507 426.318 438.615 426.318L467.073 426.318C469.181 426.318 470.516 423.999 469.392 422.242L455.198 398.07C454.144 396.313 451.544 396.313 450.49 398.07Z" fill="#F9BC43" fill-opacity="0.64" transform="matrix(1 0 0 1.00141 280.064 -0.288795)"/><path d="M467.073 427.653 438.615 427.653C437.139 427.653 435.874 426.88 435.171 425.615 434.469 424.35 434.469 422.874 435.171 421.61L449.366 397.437C450.068 396.172 451.403 395.47 452.809 395.47 452.809 395.47 452.809 395.47 452.809 395.47 454.214 395.47 455.549 396.243 456.252 397.437L470.446 421.61C471.149 422.874 471.219 424.35 470.446 425.615 469.673 426.88 468.479 427.653 467.073 427.653ZM452.809 397.999C452.528 397.999 451.966 398.07 451.544 398.702L437.35 422.874C436.998 423.507 437.209 424.069 437.35 424.35 437.49 424.561 437.842 425.053 438.615 425.053L467.073 425.053C467.846 425.053 468.197 424.561 468.338 424.35 468.479 424.139 468.689 423.577 468.338 422.874L454.144 398.702C453.652 398.07 453.09 397.999 452.809 397.999Z" fill="#310305" fill-opacity="0.64" transform="matrix(1 0 0 1.00141 280.064 -0.288795)"/><path d="M511.272 404.675 507.407 398.14C506.353 396.313 503.683 396.313 502.629 398.14L488.505 422.312C487.451 424.139 488.786 426.388 490.894 426.388L510.78 426.388" fill="#F9BC43" fill-opacity="0.64" transform="matrix(1 0 0 1.00141 280.064 -0.288795)"/><path d="M510.78 427.653 490.894 427.653C489.418 427.653 488.083 426.88 487.381 425.615 486.678 424.35 486.678 422.874 487.381 421.68L501.575 397.508C502.278 396.243 503.613 395.54 505.088 395.54 506.564 395.54 507.829 396.313 508.602 397.508L512.466 404.043 510.218 405.378 506.353 398.843C506.002 398.21 505.369 398.14 505.088 398.14 504.807 398.14 504.175 398.21 503.823 398.843L489.629 423.015C489.278 423.647 489.489 424.21 489.629 424.42 489.91 424.842 490.402 425.123 490.894 425.123L510.78 425.123 510.78 427.653Z" fill="#310305" fill-opacity="0.64" transform="matrix(1 0 0 1.00141 280.064 -0.288795)"/><path d="M481.689 418.026 495.813 400.67C497.007 399.124 495.953 396.875 493.986 396.875L465.738 396.875C463.771 396.875 462.717 399.124 463.911 400.67L478.035 418.026C479.019 419.22 480.705 419.22 481.689 418.026Z" fill="#F4E7B4" fill-opacity="0.64" transform="matrix(1 0 0 1.00141 280.064 -0.288795)"/><path d="M479.862 420.204C478.738 420.204 477.754 419.712 477.051 418.869L462.927 401.513C462.014 400.459 461.873 398.983 462.506 397.718 463.138 396.454 464.333 395.681 465.738 395.681L493.986 395.681C495.391 395.681 496.656 396.454 497.218 397.718 497.851 398.983 497.64 400.459 496.797 401.513L482.673 418.869C481.97 419.712 480.986 420.204 479.862 420.204ZM465.738 398.14C465.176 398.14 464.895 398.562 464.825 398.702 464.754 398.913 464.614 399.335 464.965 399.826L479.089 417.183C479.37 417.534 479.721 417.534 479.862 417.534 480.003 417.534 480.424 417.464 480.635 417.183L494.759 399.826C495.11 399.405 494.97 398.913 494.899 398.702 494.829 398.491 494.548 398.14 493.986 398.14L465.738 398.14Z" fill="#310305" fill-opacity="0.64" transform="matrix(1 0 0 1.00141 280.064 -0.288795)"/><path d="M273.133 599.178C271.657 599.178 270.392 598.053 270.181 596.578L267.371 574.232C267.16 572.616 268.284 571.14 269.9 570.93 271.517 570.719 272.992 571.843 273.203 573.459L276.014 595.805C276.225 597.421 275.1 598.896 273.484 599.107 273.414 599.178 273.273 599.178 273.133 599.178Z" fill="#310305" transform="matrix(1 0 0 1.00141 280.064 -0.288795)"/><path d="M268.495 562.146C267.019 562.146 265.755 561.022 265.544 559.546L254.933 475.013C254.722 473.397 255.847 471.922 257.463 471.711 259.079 471.5 260.555 472.624 260.766 474.241L271.376 558.773C271.587 560.389 270.463 561.865 268.846 562.076 268.776 562.146 268.636 562.146 268.495 562.146Z" fill="#310305" transform="matrix(1 0 0 1.00141 280.064 -0.288795)"/><path d="M453.111 486.805 453.617 487.008 454.116 487.507 454.629 488.435 455.142 489.974 455.753 493.234 456.189 498.209 456.343 503.704 456.252 510.562 455.922 517.821 455.324 526.106 454.502 534.65 453.406 543.883 452.099 553.089 450.708 561.563 449.169 569.721 447.623 576.818 445.958 583.473 444.398 588.743 442.704 593.444 441.278 596.437 440.392 597.8 439.662 598.559 439.043 598.918 438.509 598.981 438.003 598.777 437.497 598.278 436.984 597.351 436.478 595.812 435.867 592.551 435.431 587.576 435.277 582.088 435.368 575.223 435.698 567.964 436.296 559.687 437.118 551.135 438.214 541.902 439.514 532.697 440.912 524.229 442.451 516.064 443.99 508.967 445.662 502.313 447.215 497.043 448.916 492.349 450.335 489.348 451.228 487.992 451.958 487.226 452.57 486.875 453.111 486.805Z" fill="#B0733F" transform="matrix(1 0 0 1.00141 280.064 -0.288795)"/></g></g></g></svg>