<svg height="489" node-id="1" sillyvg="true" template-height="489" template-width="489" version="1.1" viewBox="0 0 489 489" width="489" xmlns="http://www.w3.org/2000/svg" xmlns:xlink="http://www.w3.org/1999/xlink"><defs node-id="31"></defs><path d="M 417.89 200.80 C 420.03 206.72 419.23 210.35 414.12 213.76 C 410.57 216.13 406.51 217.82 402.53 219.45 C 380.64 228.40 357.78 234.44 335.21 241.30 C 331.29 242.49 329.67 243.88 330.13 248.05 C 332.12 266.34 328.14 283.71 321.66 300.66 C 321.30 301.59 321.02 302.55 320.73 303.50 C 316.83 316.27 316.83 316.39 303.10 315.76 C 292.16 315.25 281.23 314.39 269.86 313.66 C 273.09 330.84 269.17 347.48 268.94 364.22 C 268.83 372.20 269.19 380.53 267.01 388.02 C 264.97 395.06 273.22 400.81 267.79 407.59 C 263.35 413.13 264.64 420.21 263.74 426.64 C 261.67 441.47 260.08 456.36 257.93 471.17 C 256.33 482.24 248.82 487.43 237.64 484.66 C 223.13 481.07 208.81 476.70 194.45 472.53 C 191.92 471.80 189.53 470.51 187.19 469.25 C 179.65 465.18 176.05 459.11 177.61 450.33 C 179.01 442.47 180.27 434.59 181.46 426.69 C 182.00 423.15 182.53 420.14 178.08 417.63 C 173.64 415.13 174.26 410.97 179.41 408.88 C 183.41 407.26 183.92 404.87 184.22 401.41 C 185.89 382.18 187.58 362.95 189.49 343.74 C 190.31 335.47 191.66 327.25 192.77 319.01 C 193.25 315.45 194.37 311.91 193.04 307.50 C 182.98 307.00 172.73 306.09 162.49 306.06 C 140.82 306.02 119.38 302.81 97.78 301.88 C 94.95 301.76 92.66 300.75 90.51 299.07 C 77.11 288.64 63.81 278.09 51.90 265.94 C 48.90 262.88 46.21 259.37 44.00 255.70 C 38.88 247.22 40.37 241.68 49.09 236.79 C 59.24 231.10 69.77 226.08 79.34 219.38 C 80.97 218.24 83.44 217.49 84.15 215.94 C 87.67 208.14 94.36 208.92 101.03 208.84 C 114.68 208.69 128.32 208.12 141.97 208.02 C 146.21 207.99 147.88 206.67 147.62 202.28 C 146.70 186.63 150.60 171.12 149.22 155.47 C 148.77 150.42 150.83 148.34 155.62 147.42 C 170.40 144.59 185.32 143.74 200.31 143.57 C 212.75 143.43 212.94 143.48 214.49 131.37 C 218.64 99.01 220.88 66.46 223.50 33.95 C 224.03 27.35 225.91 20.85 224.85 14.10 C 224.14 9.55 226.81 7.28 231.07 6.84 C 233.03 6.64 235.05 6.83 237.03 7.00 C 247.31 7.88 257.59 8.83 267.87 9.72 C 278.00 10.59 287.29 13.76 295.98 19.11 C 302.85 23.35 306.27 28.90 305.89 37.21 C 305.24 51.22 303.01 65.02 300.85 78.81 C 297.66 99.22 296.30 119.81 293.77 140.29 C 293.06 146.04 292.29 147.12 300.31 147.98 C 322.15 150.30 343.89 153.54 365.74 155.73 C 379.09 157.07 390.18 161.60 397.91 172.98 C 398.63 174.07 417.22 198.95 417.89 200.80 Z" fill="#000000" fill-rule="nonzero" node-id="35" stroke="none" target-height="480.78998" target-width="381.15" target-x="38.88" target-y="6.64"/><path d="M 317.44 235.45 C 320.42 248.17 320.92 260.92 317.86 273.70 C 313.06 268.04 314.32 262.13 316.42 257.11 C 311.19 265.98 301.44 267.83 291.20 268.21 C 272.89 268.88 254.71 266.32 236.48 265.29 C 229.58 264.90 222.50 265.05 215.69 263.34 C 206.62 259.12 208.22 250.42 207.54 241.57 C 201.62 244.75 201.49 249.82 200.54 254.34 C 199.74 258.15 200.87 262.41 197.83 265.70 C 188.77 263.71 179.83 260.68 170.33 262.42 C 162.63 259.43 161.56 253.60 163.49 246.44 C 164.06 244.32 165.55 241.43 162.89 240.29 C 159.64 238.90 158.52 242.27 157.31 244.46 C 154.53 249.51 154.50 256.16 148.56 259.38 C 140.91 262.54 133.08 263.04 125.10 260.95 C 120.94 258.49 122.37 254.90 123.25 251.45 C 124.22 247.63 122.94 244.65 119.15 243.98 C 114.06 243.07 114.66 247.42 114.31 250.47 C 113.94 253.68 114.23 257.01 112.13 259.82 C 110.54 261.56 108.54 262.97 106.28 263.07 C 95.25 263.55 85.66 268.47 75.80 272.58 C 66.69 265.88 58.28 258.50 52.51 248.75 C 53.85 245.78 56.60 245.08 58.88 243.91 C 69.20 238.58 79.23 232.78 88.83 226.23 C 95.54 221.65 102.82 219.32 111.17 219.35 C 138.03 219.47 164.90 219.11 191.77 218.99 C 194.41 218.98 197.04 219.29 199.68 219.45 C 213.11 221.66 226.65 219.87 240.12 220.45 C 242.98 220.47 245.84 220.40 248.71 220.51 C 250.36 220.96 252.02 221.37 253.76 221.38 C 267.02 221.49 280.28 221.23 293.53 221.49 C 303.95 221.71 313.29 224.23 317.44 235.45 Z" fill="#fffccf" fill-rule="nonzero" node-id="37" stroke="none" target-height="54.720016" target-width="268.41" target-x="52.51" target-y="218.98"/><path d="M 159.87 181.48 C 159.28 175.49 160.23 169.58 160.66 163.63 C 161.02 158.70 163.38 156.78 168.04 156.33 C 180.29 155.15 192.58 154.38 204.86 154.62 C 227.44 155.07 250.05 155.55 272.59 156.87 C 305.63 158.80 338.43 163.22 371.23 167.54 C 376.76 168.27 381.37 170.50 385.03 174.70 C 393.09 183.97 400.39 193.82 408.18 204.82 C 385.19 215.90 361.29 222.14 337.59 228.92 C 329.86 225.83 326.44 219.27 326.04 211.78 C 325.71 205.52 322.84 204.04 317.59 203.46 C 307.74 202.37 298.01 200.23 288.02 200.52 C 283.68 199.80 280.19 197.05 276.19 195.44 C 268.03 192.16 260.30 188.78 253.65 197.90 C 238.99 192.27 223.44 194.13 208.32 192.58 C 198.10 191.53 187.70 192.54 177.38 192.26 C 169.48 192.04 163.09 189.32 159.87 181.48 Z" fill="#fffccf" fill-rule="nonzero" node-id="39" stroke="none" target-height="74.53999" target-width="248.9" target-x="159.28" target-y="154.38"/><path d="M 169.33 261.86 C 179.57 256.66 188.89 259.50 197.88 265.16 C 203.55 265.36 210.21 269.79 213.87 261.42 C 233.05 261.50 252.11 263.29 271.18 265.11 C 279.40 265.89 287.80 265.74 296.05 265.11 C 303.98 264.50 311.20 261.44 317.85 255.21 C 317.85 261.38 317.85 267.55 317.85 273.72 C 317.43 283.89 312.26 292.67 309.58 302.18 C 308.75 305.11 306.48 305.33 304.08 305.16 C 298.46 304.76 292.85 304.17 287.22 303.81 C 234.93 300.47 182.75 295.45 130.37 293.34 C 118.26 292.85 105.97 290.54 94.32 287.16 C 86.90 285.01 81.43 278.20 75.79 272.60 C 81.52 265.04 90.12 262.98 98.65 261.64 C 103.12 260.94 107.60 260.43 111.98 259.24 C 112.39 259.31 112.79 259.38 113.20 259.44 C 113.99 259.68 114.76 259.96 115.53 260.24 C 118.47 261.25 121.13 259.39 123.96 259.40 C 132.65 259.70 141.29 259.26 149.83 257.45 C 150.51 257.84 151.11 258.34 151.64 258.92 C 152.49 259.78 153.40 260.58 154.40 261.28 C 159.25 265.04 164.14 267.20 169.33 261.86 Z" fill="#ffffff" fill-rule="nonzero" node-id="41" stroke="none" target-height="50.11998" target-width="242.06" target-x="75.79" target-y="255.21"/><path d="M 266.01 145.21 C 252.14 144.75 238.26 144.28 223.95 143.80 C 229.51 103.61 231.47 64.14 235.54 24.87 C 236.27 17.84 236.33 17.79 243.18 18.46 C 252.76 19.40 262.34 20.45 271.92 21.42 C 275.27 21.76 278.48 22.45 281.37 24.28 C 284.84 29.47 282.13 32.54 277.69 35.03 C 271.80 35.77 270.25 39.84 270.45 44.92 C 271.21 64.13 267.52 82.93 265.31 101.86 C 264.82 106.05 265.47 109.67 267.79 113.10 C 272.56 124.10 269.21 134.65 266.01 145.21 Z" fill="#ffffff" fill-rule="nonzero" node-id="43" stroke="none" target-height="127.420006" target-width="60.89" target-x="223.95" target-y="17.79"/><path d="M 233.47 392.93 C 225.57 392.02 217.65 391.23 209.78 390.13 C 205.45 389.53 201.22 388.85 196.28 391.74 C 196.93 382.63 197.25 374.44 198.13 366.31 C 199.95 349.47 202.00 332.66 204.10 315.85 C 204.98 308.79 205.16 308.61 211.97 309.14 C 220.57 309.81 229.15 310.84 237.74 311.71 C 240.67 317.43 238.65 323.46 238.59 329.29 C 238.40 347.15 240.07 365.07 236.98 382.84 C 236.35 386.42 236.36 390.17 233.47 392.93 Z" fill="#feffff" fill-rule="nonzero" node-id="45" stroke="none" target-height="84.32001" target-width="44.39" target-x="196.28" target-y="308.61"/><path d="M 233.47 392.93 C 235.57 370.80 235.47 348.59 235.68 326.40 C 235.73 321.37 236.32 316.51 237.74 311.72 C 244.74 311.22 251.57 312.52 258.35 313.16 C 260.06 323.18 260.33 332.87 259.45 342.57 C 257.83 360.36 257.85 378.29 255.17 396.57 C 247.57 395.65 240.39 395.17 233.47 392.93 Z" fill="#4dbfb2" fill-rule="nonzero" node-id="47" stroke="none" target-height="85.350006" target-width="26.859985" target-x="233.47" target-y="311.22"/><path d="M 159.87 181.48 C 166.32 188.07 174.08 190.31 183.26 189.58 C 203.42 187.99 223.46 191.51 243.59 191.43 C 248.73 191.41 252.37 193.67 255.48 197.35 C 262.80 198.10 270.33 198.40 274.06 206.47 C 272.70 209.23 270.53 208.10 268.50 207.61 C 267.21 207.84 265.93 208.28 264.64 208.28 C 231.75 208.18 198.86 208.05 165.97 207.87 C 158.28 207.83 158.21 207.73 158.25 200.29 C 158.29 193.98 158.58 187.68 159.87 181.48 Z" fill="#fefefe" fill-rule="nonzero" node-id="49" stroke="none" target-height="27.75" target-width="115.84999" target-x="158.21" target-y="181.48"/><path d="M 266.01 145.21 C 265.46 139.59 265.94 134.06 266.74 128.47 C 267.43 123.68 268.89 118.69 266.28 113.94 C 271.45 105.79 271.42 96.37 272.79 87.28 C 275.43 69.75 275.10 51.94 277.87 34.43 C 281.01 31.73 280.57 27.80 281.36 24.29 C 282.60 24.74 283.90 25.05 285.06 25.65 C 295.30 30.95 296.16 32.36 294.73 43.58 C 293.22 55.44 291.59 67.29 289.79 79.11 C 287.00 97.52 285.43 116.06 283.48 134.57 C 283.11 138.12 283.79 141.92 281.53 145.14 C 280.79 145.25 280.07 145.46 279.38 145.76 C 274.93 145.57 270.47 145.39 266.01 145.21 Z" fill="#4dbeb1" fill-rule="nonzero" node-id="51" stroke="none" target-height="121.46999" target-width="30.700012" target-x="265.46" target-y="24.29"/><path d="M 223.84 469.31 C 213.96 467.76 204.47 464.74 195.25 461.05 C 188.22 458.23 187.75 456.62 189.00 448.82 C 190.15 441.61 191.22 434.38 192.18 427.14 C 192.74 422.87 193.82 420.73 199.14 422.06 C 208.78 424.48 218.68 425.89 228.46 427.72 C 229.78 428.76 231.34 430.04 231.32 431.60 C 231.20 444.61 231.67 457.80 223.84 469.31 Z" fill="#fefefe" fill-rule="nonzero" node-id="53" stroke="none" target-height="48.579987" target-width="43.92" target-x="187.75" target-y="420.73"/><path d="M 223.84 469.31 C 225.63 459.28 227.50 449.26 229.17 439.20 C 229.81 435.36 230.84 431.39 228.45 427.70 C 231.66 428.11 234.86 428.72 238.07 428.87 C 241.55 429.03 244.94 428.04 245.49 424.05 C 246.07 419.80 242.76 418.58 239.33 417.96 C 236.77 417.50 234.17 417.19 231.59 416.81 C 229.01 412.79 227.62 408.49 228.43 403.66 C 234.93 404.75 241.39 406.25 247.94 406.81 C 253.26 407.27 254.64 409.51 254.00 414.51 C 252.03 429.98 250.54 445.52 248.44 460.97 C 247.83 465.45 249.25 471.39 245.33 474.09 C 241.37 476.81 236.64 472.74 232.24 471.79 C 229.42 471.18 226.18 471.65 223.84 469.31 Z" fill="#4dbeb1" fill-rule="nonzero" node-id="55" stroke="none" target-height="73.149994" target-width="30.800003" target-x="223.84" target-y="403.66"/><path d="M 268.50 207.61 C 270.50 207.45 272.50 207.28 273.61 205.21 C 277.75 202.49 282.98 202.53 287.17 199.94 C 288.90 197.28 291.63 197.22 294.26 197.55 C 304.36 198.81 314.44 200.22 324.53 201.63 C 326.59 201.92 328.72 202.80 328.21 205.30 C 326.19 215.29 332.18 221.96 337.59 228.92 C 335.77 229.67 333.97 230.52 332.11 231.15 C 329.91 231.90 328.36 231.29 327.66 228.82 C 323.26 213.25 311.24 209.75 297.05 209.10 C 287.53 208.66 277.92 209.74 268.50 207.61 Z" fill="#fbfbfa" fill-rule="nonzero" node-id="57" stroke="none" target-height="34.679993" target-width="69.09" target-x="268.5" target-y="197.22"/><path d="M 228.43 403.67 C 234.25 406.91 231.32 412.25 231.58 416.82 C 221.40 416.04 211.47 413.79 201.56 411.53 C 194.53 409.93 194.53 409.87 195.25 402.53 C 195.38 401.25 195.64 399.97 195.88 398.43 C 206.64 401.82 217.69 401.70 228.43 403.67 Z" fill="#f9f9f9" fill-rule="nonzero" node-id="59" stroke="none" target-height="18.390015" target-width="39.72" target-x="194.53" target-y="398.43"/><path d="M 249.59 221.45 C 246.94 221.44 244.29 221.43 241.64 221.43 C 240.99 221.00 240.77 220.58 240.99 220.15 C 241.21 219.72 241.42 219.51 241.64 219.51 C 260.91 218.77 280.19 218.97 299.42 220.06 C 312.37 220.79 315.44 224.01 317.44 235.46 C 309.76 225.74 299.41 223.03 287.52 223.38 C 275.56 223.73 263.57 223.37 251.60 223.33 C 250.94 222.69 250.27 222.07 249.59 221.45 Z" fill="#f0f0ed" fill-rule="nonzero" node-id="61" stroke="none" target-height="16.690002" target-width="76.67" target-x="240.77" target-y="218.77"/><path d="M 241.64 219.50 C 241.64 220.14 241.64 220.78 241.64 221.42 C 230.75 221.42 219.86 221.49 208.97 221.37 C 205.80 221.34 202.28 222.43 199.66 219.46 C 213.65 218.61 227.64 218.70 241.64 219.50 Z" fill="#f2f2ec" fill-rule="nonzero" node-id="63" stroke="none" target-height="3.819992" target-width="41.979996" target-x="199.66" target-y="218.61"/><path d="M 279.39 145.75 C 279.87 144.72 280.40 143.86 281.54 145.13 C 281.18 146.56 280.52 146.96 279.39 145.75 Z" fill="#6dc7bc" fill-rule="nonzero" node-id="65" stroke="none" target-height="3.100006" target-width="2.149994" target-x="279.39" target-y="143.86"/><path d="M 150.01 258.93 C 150.40 258.38 150.33 257.88 149.82 257.44 C 151.57 252.84 153.33 248.25 155.06 243.65 C 155.88 241.48 156.82 239.35 158.61 237.82 C 160.40 236.28 162.38 235.07 164.84 236.50 C 167.51 238.05 168.89 240.88 167.20 243.14 C 161.86 250.29 166.25 255.92 169.34 261.86 C 165.99 269.98 163.89 270.75 157.35 266.10 C 155.19 264.57 153.18 262.83 151.11 261.19 C 150.74 260.43 150.38 259.68 150.01 258.93 Z" fill="#080808" fill-rule="nonzero" node-id="67" stroke="none" target-height="35.679993" target-width="19.519989" target-x="149.82" target-y="235.07"/><path d="M 213.87 261.41 C 213.68 262.70 213.69 264.06 213.27 265.26 C 211.42 270.59 209.46 271.47 204.63 269.07 C 202.31 267.92 200.13 266.47 197.89 265.15 C 195.77 257.00 197.81 249.44 201.30 242.16 C 202.83 238.98 205.27 236.56 209.17 238.41 C 212.56 240.02 212.98 243.52 211.26 246.03 C 206.96 252.30 212.77 256.36 213.87 261.41 Z" fill="#080808" fill-rule="nonzero" node-id="69" stroke="none" target-height="34.910004" target-width="18.09999" target-x="195.77" target-y="236.56"/><path d="M 123.95 259.39 C 119.37 265.18 119.37 265.18 113.13 261.23 C 112.82 260.48 112.42 259.79 111.92 259.15 C 111.92 259.15 111.97 259.23 111.97 259.23 C 111.95 255.34 112.14 251.43 111.83 247.56 C 111.61 244.75 111.51 242.11 114.58 241.04 C 118.65 239.61 122.32 241.11 125.43 243.70 C 128.00 245.84 128.60 248.68 126.52 251.53 C 124.78 253.91 122.60 256.04 123.95 259.39 Z" fill="#0d0d0b" fill-rule="nonzero" node-id="71" stroke="none" target-height="25.569992" target-width="17.090004" target-x="111.51" target-y="239.61"/><path d="M 249.59 221.45 C 250.26 222.08 250.93 222.70 251.60 223.32 C 250.93 222.69 250.26 222.07 249.59 221.45 Z" fill="#f2f2ec" fill-rule="nonzero" node-id="73" stroke="none" target-height="1.8700104" target-width="2.0100098" target-x="249.59" target-y="221.45"/><path d="M 327.38 179.48 C 328.12 179.96 329.58 180.41 330.21 181.39 C 335.94 190.27 344.43 194.61 354.42 196.78 C 357.68 197.49 360.61 199.17 363.02 201.54 C 364.76 203.26 365.91 205.34 364.56 207.76 C 363.12 210.35 360.56 212.04 357.98 210.28 C 350.84 205.43 340.65 207.94 334.71 200.22 C 332.58 197.45 329.02 199.64 326.19 199.02 C 321.69 198.02 319.27 195.26 319.31 190.64 C 319.35 186.14 320.48 182.07 324.92 179.83 C 325.46 179.55 326.19 179.64 327.38 179.48 Z" fill="#070706" fill-rule="nonzero" node-id="75" stroke="none" target-height="32.559998" target-width="46.640015" target-x="319.27" target-y="179.48"/><path d="M 287.17 199.93 C 285.89 204.40 283.09 206.28 278.40 205.32 C 276.86 205.01 275.21 205.22 273.61 205.20 C 268.21 201.11 260.54 202.23 255.48 197.35 C 255.27 187.70 255.90 186.86 265.02 189.49 C 272.87 191.76 281.64 192.55 287.17 199.93 Z" fill="#0c0c0b" fill-rule="nonzero" node-id="77" stroke="none" target-height="19.419998" target-width="31.90001" target-x="255.27" target-y="186.86"/><path d="M 111.93 259.15 C 113.01 259.45 113.30 260.22 113.14 261.23 C 112.19 260.86 111.81 260.15 111.93 259.15 Z" fill="#fffccf" fill-rule="nonzero" node-id="79" stroke="none" target-height="2.080017" target-width="1.4900055" target-x="111.81" target-y="259.15"/><path d="M 150.01 258.93 C 151.06 259.36 151.24 260.20 151.10 261.20 C 150.13 260.73 149.81 259.95 150.01 258.93 Z" fill="#fffccf" fill-rule="nonzero" node-id="81" stroke="none" target-height="2.2700195" target-width="1.4300079" target-x="149.81" target-y="258.93"/><path d="M 277.88 34.42 C 280.66 48.23 277.82 61.97 277.04 75.70 C 276.49 85.53 274.66 95.29 273.48 105.10 C 272.94 109.62 271.95 113.65 266.29 113.93 C 262.54 112.41 261.78 109.30 262.23 105.77 C 265.07 83.39 268.16 61.06 268.03 38.40 C 267.98 31.91 271.18 30.91 277.88 34.42 Z" fill="#040505" fill-rule="nonzero" node-id="83" stroke="none" target-height="83.020004" target-width="18.880005" target-x="261.78" target-y="30.91"/></svg>