<svg width="583" height="542" xmlns="http://www.w3.org/2000/svg" xmlns:xlink="http://www.w3.org/1999/xlink" overflow="hidden"><defs><clipPath id="clip0"><rect x="387" y="71" width="583" height="542"/></clipPath><clipPath id="clip1"><rect x="388" y="72" width="581" height="540"/></clipPath><clipPath id="clip2"><rect x="388" y="72" width="582" height="540"/></clipPath></defs><g clip-path="url(#clip0)" transform="translate(-387 -71)"><g clip-path="url(#clip1)"><g clip-path="url(#clip2)"><g><path d="M309.629 58.2798 412.869 161.52C423.019 171.67 423.019 188.139 412.869 198.289L412.869 198.289C402.719 208.439 386.249 208.439 376.099 198.289L272.859 95.0497C262.709 84.8998 262.709 68.4398 272.859 58.2798L272.859 58.2798C283.019 48.1299 299.479 48.1299 309.629 58.2798Z" fill="#B9EDB1" transform="matrix(1 0 0 1 211.639 72)"/><path d="M721.998 269.999C721.998 403.649 613.648 511.999 479.999 511.999 346.349 511.999 237.999 403.649 237.999 269.999 237.999 136.35 346.349 27.9999 479.999 27.9999 613.648 27.9999 721.998 136.35 721.998 269.999Z" fill="#B6EDAE" transform="matrix(1 0 0 1 211.639 72)"/><path d="M688.478 385.329 726.658 423.519C739.548 436.409 739.548 457.299 726.658 470.189L726.658 470.189C713.778 483.069 692.878 483.069 679.998 470.189L641.808 431.999C628.918 419.119 628.918 398.219 641.808 385.329L641.808 385.329C654.698 372.449 675.598 372.449 688.478 385.329Z" fill="#B9EDB1" transform="matrix(1 0 0 1 211.639 72)"/><path d="M221.629 91.2797 324.869 194.519C335.019 204.669 335.019 221.139 324.869 231.289L324.869 231.289C314.719 241.439 298.249 241.439 288.099 231.289L184.859 128.05C174.71 117.9 174.71 101.44 184.859 91.2797L184.859 91.2797C195.019 81.1298 211.479 81.1298 221.629 91.2797Z" fill="#B9EDB1" transform="matrix(1 0 0 1 211.639 72)"/><path d="M689.838 291.879 747.118 349.159C754.728 356.769 754.728 369.119 747.118 376.729L747.118 376.729C739.498 384.349 727.158 384.349 719.538 376.729L662.268 319.459C654.648 311.839 654.648 299.499 662.268 291.879L662.268 291.879C669.878 284.269 682.228 284.269 689.838 291.879Z" fill="#B9EDB1" transform="matrix(1 0 0 1 211.639 72)"/><path d="M424.519 78.1198 617.748 94.9897 621.418 95.5697 624.838 96.5797 628.028 98.0197 631.008 99.8597 633.688 102.03 636.078 104.53 638.128 107.32 639.788 110.32 641.088 113.58 641.948 116.98 642.358 120.52 642.288 124.23 620.708 371.239 620.138 374.909 619.128 378.329 617.688 381.529 615.838 384.509 613.678 387.179 611.178 389.569 608.388 391.619 605.378 393.289 602.128 394.589 598.728 395.449 595.188 395.849 591.468 395.789 398.249 378.909 394.579 378.329 391.159 377.319 387.969 375.879 384.979 374.039 382.309 371.869 379.919 369.369 377.869 366.589 376.199 363.579 374.909 360.319 374.039 356.919 373.639 353.379 373.709 349.669 395.279 102.66 395.859 98.9897 396.869 95.5697 398.309 92.3797 400.149 89.3898 402.319 86.7198 404.819 84.3298 407.599 82.2798 410.609 80.6098 413.869 79.3198 417.269 78.4498 420.809 78.0498 424.519 78.1198Z" fill="#FFC670" transform="matrix(1 0 0 1 211.639 72)"/><path d="M593.838 395.889 591.468 395.789 398.249 378.909 394.579 378.329 391.169 377.319 387.979 375.879 384.989 374.039 382.319 371.869 379.929 369.359 377.879 366.579 376.209 363.569 374.909 360.309 374.039 356.909 373.639 353.379 373.699 349.669 395.279 102.66 395.819 99.1597 396.739 95.8997 398.009 92.8698 399.659 90.0198 401.649 87.3898 403.889 85.0698 406.399 83.0298 409.199 81.2798 412.169 79.8798 415.299 78.8698 418.619 78.2498 422.159 78.0098 424.519 78.1098 617.748 94.9897 621.408 95.5697 624.828 96.5797 628.018 98.0197 631.008 99.8697 633.678 102.03 636.068 104.54 638.118 107.32 639.788 110.33 641.088 113.59 641.948 116.99 642.358 120.52 642.288 124.24 620.718 371.239 620.168 374.749 619.258 377.999 617.978 381.039 616.338 383.879 614.348 386.509 612.108 388.839 609.598 390.869 606.798 392.619 603.828 394.019 600.698 395.029 597.378 395.659 593.838 395.889ZM422.159 98.0097 420.389 98.2497 418.839 98.8597 417.449 99.8597 416.339 101.16 415.599 102.65 415.199 104.4 393.629 351.409 393.719 353.289 394.279 355.009 395.239 356.509 396.559 357.729 398.149 358.569 399.989 358.989 593.208 375.869 595.098 375.769 596.818 375.209 598.318 374.229 599.538 372.909 600.378 371.329 600.788 369.499 622.368 122.5 622.278 120.61 621.718 118.9 620.748 117.39 619.438 116.18 617.848 115.33 616.008 114.92 422.779 98.0397 422.159 98.0097Z" fill="#3D3D63" transform="matrix(1 0 0 1 211.639 72)"/><path d="M356.999 127 554.998 127 558.428 127.24 561.668 127.9 564.728 128.96 567.628 130.42 570.268 132.21 572.678 134.32 574.788 136.73 576.578 139.37 578.038 142.27 579.098 145.33 579.758 148.57 579.998 152 579.998 403.999 579.758 407.429 579.098 410.669 578.038 413.729 576.578 416.629 574.788 419.269 572.678 421.679 570.268 423.789 567.628 425.579 564.728 427.039 561.668 428.099 558.428 428.759 554.998 428.999 356.999 428.999 353.569 428.759 350.329 428.099 347.269 427.039 344.369 425.579 341.729 423.789 339.319 421.679 337.209 419.269 335.419 416.629 333.959 413.729 332.899 410.669 332.239 407.429 331.999 403.999 331.999 152 332.239 148.57 332.899 145.33 333.959 142.27 335.419 139.37 337.209 136.73 339.319 134.32 341.729 132.21 344.369 130.42 347.269 128.96 350.329 127.9 353.569 127.24 356.999 127Z" fill="#FFF6E6" transform="matrix(1 0 0 1 211.639 72)"/><path d="M554.998 428.999 356.999 428.999 353.569 428.759 350.339 428.099 347.279 427.029 344.379 425.569 341.739 423.789 339.329 421.669 337.209 419.259 335.429 416.619 333.969 413.719 332.899 410.659 332.239 407.429 331.999 403.999 331.999 152 332.239 148.57 332.899 145.34 333.969 142.28 335.429 139.38 337.209 136.74 339.329 134.33 341.739 132.21 344.379 130.43 347.279 128.97 350.339 127.9 353.569 127.24 356.999 127 554.998 127 558.428 127.24 561.658 127.9 564.718 128.97 567.618 130.43 570.258 132.21 572.668 134.33 574.788 136.74 576.568 139.38 578.028 142.28 579.098 145.34 579.758 148.57 579.998 152 579.998 403.999 579.758 407.429 579.098 410.659 578.028 413.719 576.568 416.619 574.788 419.259 572.668 421.669 570.258 423.789 567.618 425.569 564.718 427.029 561.658 428.099 558.428 428.759 554.998 428.999ZM356.999 147 355.639 147.19 354.479 147.68 353.469 148.47 352.679 149.48 352.189 150.64 351.999 152 351.999 403.999 352.189 405.359 352.679 406.519 353.469 407.529 354.479 408.319 355.639 408.809 356.999 408.999 554.998 408.999 556.358 408.809 557.518 408.319 558.529 407.529 559.318 406.519 559.808 405.359 559.998 403.999 559.998 152 559.808 150.64 559.318 149.48 558.529 148.47 557.518 147.68 556.358 147.19 554.998 147 356.999 147Z" fill="#3D3D63" transform="matrix(1 0 0 1 211.639 72)"/><path d="M351.999 379.559 410.999 388.999 459.529 388.999 459.529 408.999C459.529 408.999 379.879 409.109 353.769 408.889 353.569 408.479 352.309 408.479 351.999 404.489 351.979 395.279 351.999 379.559 351.999 379.559Z" fill="#FFB038" transform="matrix(1 0 0 1 211.639 72)"/><path d="M359.999 355.999 367.999 355.999 367.999 408.999 359.999 408.999Z" fill="#FFC670" transform="matrix(1 0 0 1 211.639 72)"/><path d="M374.999 389.999 382.999 389.999 382.999 408.999 374.999 408.999Z" fill="#FFC670" transform="matrix(1 0 0 1 211.639 72)"/><path d="M497.999 468.999 399.999 468.999C397.239 468.999 394.999 466.759 394.999 463.999 394.999 461.239 397.239 458.999 399.999 458.999L497.999 458.999C500.759 458.999 502.999 461.239 502.999 463.999 502.999 466.759 500.759 468.999 497.999 468.999Z" fill="#3D3D63" transform="matrix(1 0 0 1 211.639 72)"/><path d="M665.998 492.999 520.999 492.999C518.239 492.999 515.999 490.759 515.999 487.999 515.999 485.239 518.239 482.999 520.999 482.999L665.998 482.999C668.758 482.999 670.998 485.239 670.998 487.999 670.998 490.759 668.758 492.999 665.998 492.999Z" fill="#3D3D63" transform="matrix(1 0 0 1 211.639 72)"/><path d="M360.999 468.999 293.999 468.999C291.239 468.999 288.999 466.759 288.999 463.999 288.999 461.239 291.239 458.999 293.999 458.999L360.999 458.999C363.759 458.999 365.999 461.239 365.999 463.999 365.999 466.759 363.759 468.999 360.999 468.999Z" fill="#3D3D63" transform="matrix(1 0 0 1 211.639 72)"/><path d="M540.999 468.999 514.999 468.999C512.239 468.999 509.999 466.759 509.999 463.999 509.999 461.239 512.239 458.999 514.999 458.999L540.999 458.999C543.759 458.999 545.998 461.239 545.998 463.999 545.998 466.759 543.759 468.999 540.999 468.999Z" fill="#3D3D63" transform="matrix(1 0 0 1 211.639 72)"/><path d="M380.999 468.999C379.679 468.999 378.399 468.469 377.459 467.539 376.529 466.599 375.999 465.309 375.999 463.999 375.999 462.689 376.529 461.399 377.459 460.459 378.389 459.529 379.679 458.999 380.999 458.999 382.319 458.999 383.609 459.529 384.539 460.459 385.469 461.399 385.999 462.689 385.999 463.999 385.999 465.309 385.469 466.599 384.539 467.539 383.609 468.469 382.319 468.999 380.999 468.999Z" fill="#3D3D63" transform="matrix(1 0 0 1 211.639 72)"/><path d="M801.998 312.209C801.488 312.209 800.978 312.019 800.588 311.629L779.368 290.409C778.588 289.629 778.588 288.369 779.368 287.589L800.588 266.369C801.368 265.589 802.628 265.589 803.408 266.369L824.628 287.589C825.408 288.369 825.408 289.629 824.628 290.409L803.408 311.629C803.018 312.019 802.508 312.209 801.998 312.209ZM783.618 288.999 801.998 307.379 820.378 288.999 801.998 270.619 783.618 288.999Z" fill="#B9EDB1" transform="matrix(1 0 0 1 211.639 72)"/><path d="M228.099 218.899C227.589 218.899 227.079 218.709 226.689 218.309L216.789 208.409C216.009 207.629 216.009 206.369 216.789 205.589L226.689 195.689C227.469 194.909 228.739 194.909 229.509 195.689L239.409 205.589C240.189 206.369 240.189 207.629 239.409 208.409L229.509 218.309C229.119 218.709 228.609 218.899 228.099 218.899ZM221.029 206.999 228.099 214.069 235.169 206.999 228.099 199.929 221.029 206.999Z" fill="#B9EDB1" transform="matrix(1 0 0 1 211.639 72)"/><path d="M690.998 328.899C690.468 328.899 689.958 328.689 689.588 328.309L679.688 318.409C678.908 317.629 678.908 316.369 679.688 315.589L689.588 305.689C690.368 304.909 691.628 304.909 692.408 305.689L702.308 315.589C703.088 316.369 703.088 317.629 702.308 318.409L692.408 328.309C692.038 328.689 691.528 328.899 690.998 328.899ZM683.928 316.999 690.998 324.069 698.068 316.999 690.998 309.929 683.928 316.999Z" fill="#FFFFFF" transform="matrix(1 0 0 1 211.639 72)"/><path d="M543.999 67.8998C543.489 67.8998 542.979 67.6998 542.589 67.3098L532.689 57.4098C531.909 56.6298 531.909 55.3698 532.689 54.5899L542.589 44.6899C543.369 43.9099 544.629 43.9099 545.408 44.6899L555.308 54.5899C556.089 55.3698 556.089 56.6298 555.308 57.4098L545.408 67.3098C545.019 67.6998 544.509 67.8998 543.999 67.8998ZM536.929 55.9998 543.999 63.0698 551.068 55.9998 543.999 48.9299 536.929 55.9998Z" fill="#FFFFFF" transform="matrix(1 0 0 1 211.639 72)"/><path d="M203.499 445.999 199.729 445.739 196.179 445.009 192.809 443.839 189.609 442.229 186.709 440.269 184.059 437.939 181.729 435.289 179.77 432.379 178.16 429.189 176.99 425.819 176.26 422.269 176 418.499 176.26 414.729 176.99 411.179 178.16 407.809 179.77 404.619 181.729 401.709 184.059 399.059 186.709 396.729 189.609 394.769 192.809 393.159 196.179 391.989 199.729 391.259 203.499 390.999 207.269 391.259 210.819 391.989 214.189 393.159 217.389 394.769 220.289 396.729 222.939 399.059 225.269 401.709 227.229 404.619 228.839 407.809 230.009 411.179 230.739 414.729 230.999 418.499 230.739 422.269 230.009 425.819 228.839 429.189 227.229 432.379 225.269 435.289 222.939 437.939 220.289 440.269 217.389 442.229 214.189 443.839 210.819 445.009 207.269 445.739 203.499 445.999ZM203.499 394.999 200.279 395.219 197.239 395.839 194.359 396.849 191.629 398.219 189.149 399.899 186.889 401.889 184.899 404.149 183.219 406.629 181.85 409.359 180.84 412.239 180.22 415.279 180 418.499 180.22 421.719 180.84 424.759 181.85 427.639 183.219 430.369 184.899 432.849 186.889 435.109 189.149 437.099 191.629 438.779 194.359 440.149 197.239 441.159 200.279 441.779 203.499 441.999 206.719 441.779 209.759 441.159 212.639 440.149 215.369 438.779 217.849 437.099 220.109 435.109 222.099 432.849 223.779 430.369 225.149 427.639 226.159 424.759 226.779 421.719 226.999 418.499 226.779 415.279 226.159 412.239 225.149 409.359 223.779 406.629 222.099 404.149 220.109 401.889 217.849 399.899 215.369 398.219 212.639 396.849 209.759 395.839 206.719 395.219 203.499 394.999Z" fill="#B9EDB1" transform="matrix(1 0 0 1 211.639 72)"/><path d="M207.499 127 205.039 126.77 202.779 126.15 200.689 125.15 198.799 123.81 197.189 122.2 195.849 120.31 194.849 118.22 194.229 115.96 193.999 113.5 194.229 111.04 194.849 108.78 195.849 106.69 197.189 104.8 198.799 103.19 200.689 101.85 202.779 100.85 205.039 100.23 207.499 99.9997 209.959 100.23 212.219 100.85 214.309 101.85 216.199 103.19 217.809 104.8 219.149 106.69 220.149 108.78 220.769 111.04 220.999 113.5 220.769 115.96 220.149 118.22 219.149 120.31 217.809 122.2 216.199 123.81 214.309 125.15 212.219 126.15 209.959 126.77 207.499 127ZM207.499 104 205.769 104.16 204.179 104.6 202.709 105.3 200.789 106.79 199.299 108.71 198.599 110.18 198.159 111.77 197.999 113.5 198.159 115.23 198.599 116.82 199.299 118.29 200.789 120.21 202.709 121.7 204.179 122.4 205.769 122.84 207.499 123 209.229 122.84 210.819 122.4 212.289 121.7 214.209 120.21 215.699 118.29 216.399 116.82 216.839 115.23 216.999 113.5 216.839 111.77 216.399 110.18 215.699 108.71 214.209 106.79 212.289 105.3 210.819 104.6 209.229 104.16 207.499 104Z" fill="#FFFFFF" transform="matrix(1 0 0 1 211.639 72)"/><path d="M447.499 108 445.769 107.84 444.179 107.4 442.709 106.7 440.789 105.21 439.299 103.29 438.599 101.82 438.159 100.23 437.999 98.4997 438.159 96.7697 438.599 95.1797 439.299 93.7097 440.789 91.7897 442.709 90.2998 444.179 89.5998 445.769 89.1598 447.499 88.9998 449.229 89.1598 450.819 89.5998 452.289 90.2998 454.209 91.7897 455.699 93.7097 456.399 95.1797 456.839 96.7697 456.999 98.4997 456.839 100.23 456.399 101.82 455.699 103.29 454.209 105.21 452.289 106.7 450.819 107.4 449.229 107.84 447.499 108ZM447.499 92.9997 446.009 93.2097 444.729 93.7497 443.609 94.6097 442.749 95.7297 442.209 97.0097 441.999 98.4997 442.209 99.9897 442.749 101.27 443.609 102.39 444.729 103.25 446.009 103.79 447.499 104 448.989 103.79 450.269 103.25 451.389 102.39 452.249 101.27 452.789 99.9897 452.999 98.4997 452.789 97.0097 452.249 95.7297 451.389 94.6097 450.269 93.7497 448.989 93.2097 447.499 92.9997Z" fill="#FFFFFF" transform="matrix(1 0 0 1 211.639 72)"/><path d="M676.998 63.9998 674.268 63.7398 671.758 63.0598 669.438 61.9498 667.328 60.4598 665.538 58.6698 664.048 56.5598 662.938 54.2399 662.258 51.7299 661.998 48.9999 662.258 46.2699 662.938 43.7599 664.048 41.4399 665.538 39.3299 667.328 37.5399 669.438 36.0499 671.758 34.9399 674.268 34.2599 676.998 33.9999 679.728 34.2599 682.238 34.9399 684.558 36.0499 686.668 37.5399 688.458 39.3299 689.948 41.4399 691.058 43.7599 691.738 46.2699 691.998 48.9999 691.738 51.7299 691.058 54.2399 689.948 56.5598 688.458 58.6698 686.668 60.4598 684.558 61.9498 682.238 63.0598 679.728 63.7398 676.998 63.9998ZM676.998 37.9999 674.998 38.1899 673.158 38.6899 671.448 39.4999 669.908 40.5999 668.598 41.9099 667.498 43.4499 666.688 45.1599 666.188 46.9999 665.998 48.9999 666.188 50.9999 666.688 52.8399 667.498 54.5499 668.598 56.0898 669.908 57.3998 671.448 58.4998 673.158 59.3098 674.998 59.8098 676.998 59.9998 678.998 59.8098 680.838 59.3098 682.548 58.4998 684.088 57.3998 685.398 56.0898 686.498 54.5499 687.308 52.8399 687.808 50.9999 687.998 48.9999 687.808 46.9999 687.308 45.1599 686.498 43.4499 685.398 41.9099 684.088 40.5999 682.548 39.4999 680.838 38.6899 678.998 38.1899 676.998 37.9999Z" fill="#B9EDB1" transform="matrix(1 0 0 1 211.639 72)"/><path d="M367.999 45.9999 365.589 45.6699 363.459 44.7699 361.639 43.3599 360.229 41.5399 359.329 39.4099 358.999 36.9999 359.329 34.5899 360.229 32.4599 361.639 30.6399 363.459 29.2299 365.589 28.3299 367.999 27.9999 370.409 28.3299 372.539 29.2299 374.359 30.6399 375.769 32.4599 376.669 34.5899 376.999 36.9999 376.669 39.4099 375.769 41.5399 374.359 43.3599 372.539 44.7699 370.409 45.6699 367.999 45.9999ZM367.999 31.9999 366.639 32.1899 365.479 32.6799 364.469 33.4699 363.679 34.4799 363.189 35.6399 362.999 36.9999 363.189 38.3599 363.679 39.5199 364.469 40.5299 365.479 41.3199 366.639 41.8099 367.999 41.9999 369.359 41.8099 370.519 41.3199 371.529 40.5299 372.319 39.5199 372.809 38.3599 372.999 36.9999 372.809 35.6399 372.319 34.4799 371.529 33.4699 370.519 32.6799 369.359 32.1899 367.999 31.9999Z" fill="#B9EDB1" transform="matrix(1 0 0 1 211.639 72)"/><path d="M706.998 214.999 704.268 214.739 701.758 214.059 699.438 212.949 697.328 211.459 695.538 209.669 694.048 207.559 692.938 205.239 692.258 202.729 691.998 199.999 692.258 197.269 692.938 194.759 694.048 192.439 695.538 190.329 697.328 188.539 699.438 187.049 701.758 185.939 704.268 185.259 706.998 184.999 709.728 185.259 712.238 185.939 714.558 187.049 716.668 188.539 718.458 190.329 719.948 192.439 721.058 194.759 721.738 197.269 721.998 199.999 721.738 202.729 721.058 205.239 719.948 207.559 718.458 209.669 716.668 211.459 714.558 212.949 712.238 214.059 709.728 214.739 706.998 214.999ZM706.998 188.999 704.998 189.189 703.158 189.689 701.448 190.499 699.908 191.599 698.598 192.909 697.498 194.449 696.688 196.159 696.188 197.999 695.998 199.999 696.188 201.999 696.688 203.839 697.498 205.549 698.598 207.089 699.908 208.399 701.448 209.499 703.158 210.309 704.998 210.809 706.998 210.999 708.998 210.809 710.838 210.309 712.548 209.499 714.088 208.399 715.398 207.089 716.498 205.549 717.308 203.839 717.808 201.999 717.998 199.999 717.808 197.999 717.308 196.159 716.498 194.449 715.398 192.909 714.088 191.599 712.548 190.499 710.838 189.689 708.998 189.189 706.998 188.999Z" fill="#FFFFFF" transform="matrix(1 0 0 1 211.639 72)"/><path d="M509.999 221.999 401.999 221.999C396.479 221.999 391.999 217.519 391.999 211.999 391.999 206.479 396.479 201.999 401.999 201.999L509.999 201.999C515.519 201.999 519.999 206.479 519.999 211.999 519.999 217.519 515.519 221.999 509.999 221.999Z" fill="#3D3D63" transform="matrix(1 0 0 1 211.639 72)"/><path d="M480.999 187.999 430.999 187.999C425.479 187.999 420.999 183.52 420.999 178 420.999 172.48 425.479 168 430.999 168L480.999 168C486.519 168 490.999 172.48 490.999 178 490.999 183.52 486.519 187.999 480.999 187.999Z" fill="#3D3D63" transform="matrix(1 0 0 1 211.639 72)"/><path d="M509.999 255.999 401.999 255.999C396.479 255.999 391.999 251.519 391.999 245.999 391.999 240.479 396.479 235.999 401.999 235.999L509.999 235.999C515.519 235.999 519.999 240.479 519.999 245.999 519.999 251.519 515.519 255.999 509.999 255.999Z" fill="#3D3D63" transform="matrix(1 0 0 1 211.639 72)"/><path d="M402.999 426.999C399.129 426.999 395.999 423.859 395.999 419.999L395.999 319.629C395.999 315.759 399.129 312.629 402.999 312.629L526.649 312.629 545.319 279.399 637.998 279.399 637.998 419.999C637.998 423.859 634.868 426.999 630.998 426.999L402.999 426.999Z" fill="#96DDFF" transform="matrix(1 0 0 1 211.639 72)"/><path d="M630.998 436.999 402.999 436.999C393.629 436.999 385.999 429.369 385.999 419.999L385.999 319.629C385.999 310.259 393.629 302.629 402.999 302.629L520.789 302.629 536.609 274.499C538.379 271.349 541.709 269.399 545.319 269.399L637.998 269.399C643.518 269.399 647.998 273.869 647.998 279.399L647.998 419.999C647.998 429.369 640.368 436.999 630.998 436.999ZM405.999 416.999 627.998 416.999 627.998 289.399 551.168 289.399 535.359 317.529C533.589 320.679 530.259 322.629 526.639 322.629L405.999 322.629 405.999 416.999Z" fill="#3D3D63" transform="matrix(1 0 0 1 211.639 72)"/><path d="M603.998 389.999 568.998 389.999C563.478 389.999 558.998 385.519 558.998 379.999 558.998 374.479 563.478 369.999 568.998 369.999L603.998 369.999C609.518 369.999 613.998 374.479 613.998 379.999 613.998 385.519 609.518 389.999 603.998 389.999Z" fill="#3D3D63" transform="matrix(1 0 0 1 211.639 72)"/><path d="M405.999 387.559 527.809 396.999 627.998 396.999 627.998 416.999 405.999 416.999 405.999 387.559Z" fill="#69BAF9" transform="matrix(1 0 0 1 211.639 72)"/><path d="M446.999 361.999 454.999 361.999 454.999 416.999 446.999 416.999Z" fill="#4DA6FF" transform="matrix(1 0 0 1 211.639 72)"/><path d="M424.999 382.499 432.999 382.499 432.999 416.999 424.999 416.999Z" fill="#4DA6FF" transform="matrix(1 0 0 1 211.639 72)"/><path d="M468.999 392.999 476.999 392.999 476.999 416.999 468.999 416.999Z" fill="#4DA6FF" transform="matrix(1 0 0 1 211.639 72)"/><path d="M490.999 397.999 498.999 397.999 498.999 416.999 490.999 416.999Z" fill="#4DA6FF" transform="matrix(1 0 0 1 211.639 72)"/><path d="M512.999 401.999 520.999 401.999 520.999 416.999 512.999 416.999Z" fill="#4DA6FF" transform="matrix(1 0 0 1 211.639 72)"/></g></g></g></g></svg>