<svg width="610" height="573" xmlns="http://www.w3.org/2000/svg" xmlns:xlink="http://www.w3.org/1999/xlink" overflow="hidden"><defs><clipPath id="clip0"><rect x="307" y="53" width="610" height="573"/></clipPath><clipPath id="clip1"><rect x="308" y="53" width="608" height="572"/></clipPath><clipPath id="clip2"><rect x="308" y="53" width="608" height="524"/></clipPath><clipPath id="clip3"><rect x="274" y="35" width="681" height="542"/></clipPath><clipPath id="clip4"><rect x="274" y="35" width="681" height="542"/></clipPath><clipPath id="clip5"><rect x="274" y="36" width="681" height="540"/></clipPath><clipPath id="clip6"><rect x="274" y="36" width="682" height="540"/></clipPath></defs><g clip-path="url(#clip0)" transform="translate(-307 -53)"><g clip-path="url(#clip1)"><g clip-path="url(#clip2)"><g clip-path="url(#clip3)"><g clip-path="url(#clip4)"><g clip-path="url(#clip5)"><g clip-path="url(#clip6)"><path d="M819.985 509.841C819.985 322.064 667.768 169.847 479.991 169.847 292.215 169.847 139.997 322.064 139.997 509.841" fill="#69BAF9" fill-opacity="0.2" transform="matrix(1.00123 0 0 1 136.161 36.0005)"/><path d="M727.607 509.841C727.607 373.033 616.699 262.125 479.891 262.125 343.084 262.125 232.176 373.033 232.176 509.841" fill="#69BAF9" fill-opacity="0.5" transform="matrix(1.00123 0 0 1 136.161 36.0005)"/><path d="M635.588 509.841C635.808 424.092 566.47 354.393 480.711 354.173 394.963 353.953 325.264 423.292 325.044 509.051 325.044 509.311 325.044 509.581 325.044 509.841" fill="#69BAF9" fill-opacity="0.7" transform="matrix(1.00123 0 0 1 136.161 36.0005)"/><path d="M734.986 509.991 470.991 509.991 469.631 509.801 468.471 509.311 467.451 508.531 466.671 507.511 466.181 506.351 465.991 504.991 466.181 503.631 466.671 502.471 467.451 501.451 468.471 500.671 469.631 500.181 470.991 499.991 734.986 499.991 736.346 500.181 737.506 500.671 738.526 501.451 739.306 502.471 739.796 503.631 739.986 504.991 739.796 506.351 739.306 507.511 738.526 508.531 737.506 509.311 736.346 509.801 734.986 509.991Z" fill="#3D3D63" transform="matrix(1.00123 0 0 1 136.161 36.0005)"/><path d="M813.985 509.991 755.986 509.991 754.626 509.801 753.466 509.311 752.446 508.531 751.666 507.511 751.176 506.351 750.986 504.991 751.176 503.631 751.666 502.471 752.446 501.451 753.466 500.671 754.626 500.181 755.986 499.991 813.985 499.991 815.345 500.181 816.505 500.671 817.525 501.451 818.305 502.471 818.795 503.631 818.985 504.991 818.795 506.351 818.305 507.511 817.525 508.531 816.505 509.311 815.345 509.801 813.985 509.991Z" fill="#3D3D63" transform="matrix(1.00123 0 0 1 136.161 36.0005)"/><path d="M418.992 509.991 358.993 509.991 357.633 509.801 356.473 509.311 355.453 508.531 354.673 507.511 354.183 506.351 353.993 504.991 354.183 503.631 354.673 502.471 355.453 501.451 356.473 500.671 357.633 500.181 358.993 499.991 418.992 499.991 420.352 500.181 421.512 500.671 422.532 501.451 423.312 502.471 423.802 503.631 423.992 504.991 423.802 506.351 423.312 507.511 422.532 508.531 421.512 509.311 420.352 509.801 418.992 509.991Z" fill="#3D3D63" transform="matrix(1.00123 0 0 1 136.161 36.0005)"/><path d="M323.994 509.991 145.997 509.991 144.637 509.801 143.477 509.311 142.457 508.531 141.677 507.511 141.187 506.351 140.997 504.991 141.187 503.631 141.677 502.471 142.457 501.451 143.477 500.671 144.637 500.181 145.997 499.991 323.994 499.991 325.354 500.181 326.514 500.671 327.534 501.451 328.314 502.471 328.804 503.631 328.994 504.991 328.804 506.351 328.314 507.511 327.534 508.531 326.514 509.311 325.354 509.801 323.994 509.991Z" fill="#3D3D63" transform="matrix(1.00123 0 0 1 136.161 36.0005)"/><path d="M446.992 504.991 446.802 506.061 446.332 506.991 445.532 507.821 443.972 508.661 441.992 508.991 440.012 508.661 438.452 507.821 437.652 506.991 437.182 506.061 436.992 504.991 437.182 503.921 437.652 502.991 438.452 502.161 440.012 501.321 441.992 500.991 443.972 501.321 445.532 502.161 446.332 502.991 446.802 503.921 446.992 504.991Z" fill="#3D3D63" transform="matrix(1.00123 0 0 1 136.161 36.0005)"/><path d="M679.987 279.995C679.987 390.453 590.449 479.991 479.991 479.991 369.533 479.991 279.995 390.453 279.995 279.995 279.995 169.537 369.533 79.9985 479.991 79.9985 590.449 79.9985 679.987 169.537 679.987 279.995Z" fill="#E39A6D" transform="matrix(1.00123 0 0 1 136.161 36.0005)"/><path d="M479.991 479.991C369.713 479.991 279.995 390.273 279.995 279.995 279.995 169.717 369.713 79.9985 479.991 79.9985 590.269 79.9985 679.987 169.717 679.987 279.995 679.987 390.273 590.269 479.991 479.991 479.991ZM479.991 105.998C384.053 105.998 305.994 184.057 305.994 279.995 305.994 375.933 384.053 453.992 479.991 453.992 575.929 453.992 653.988 375.933 653.988 279.995 653.988 184.057 575.929 105.998 479.991 105.998Z" fill="#3D3D63" transform="matrix(1.00123 0 0 1 136.161 36.0005)"/><path d="M422.992 371.493C422.992 384.473 412.472 394.993 399.493 394.993 386.513 394.993 375.993 384.473 375.993 371.493 375.993 358.513 386.513 347.994 399.493 347.994 412.472 347.994 422.992 358.513 422.992 371.493Z" fill="#FBD45C" transform="matrix(1.00123 0 0 1 136.161 36.0005)"/><path d="M603.989 204.496C603.989 214.716 595.709 222.996 585.489 222.996 575.269 222.996 566.99 214.716 566.99 204.496 566.99 194.276 575.269 185.997 585.489 185.997 595.709 185.997 603.989 194.276 603.989 204.496Z" fill="#FBD45C" transform="matrix(1.00123 0 0 1 136.161 36.0005)"/><path d="M392.993 239.496C392.993 248.605 385.603 255.995 376.493 255.995 367.383 255.995 359.993 248.605 359.993 239.496 359.993 230.386 367.383 222.996 376.493 222.996 385.603 222.996 392.993 230.386 392.993 239.496Z" fill="#70626F" transform="matrix(1.00123 0 0 1 136.161 36.0005)"/><path d="M460.992 361.493C460.992 370.603 453.602 377.993 444.492 377.993 435.382 377.993 427.992 370.603 427.992 361.493 427.992 352.384 435.382 344.994 444.492 344.994 453.602 344.994 460.992 352.384 460.992 361.493Z" fill="#70626F" transform="matrix(1.00123 0 0 1 136.161 36.0005)"/><path d="M653.998 279.995C654.088 376.003 576.329 453.902 480.321 453.992 480.211 453.992 480.101 453.992 479.991 453.992 618.769 411.172 653.998 279.995 653.998 279.995Z" fill="#C57D51" transform="matrix(1.00123 0 0 1 136.161 36.0005)"/><path d="M353.793 445.212C304.254 445.212 269.615 429.792 255.765 401.353 242.266 373.643 250.905 337.334 280.105 299.114 284.465 293.405 292.625 292.315 298.335 296.675 304.034 301.034 305.124 309.184 300.764 314.894 277.845 344.894 270.165 371.563 279.135 389.973 288.885 409.982 319.004 420.582 361.753 419.072 408.812 417.402 465.111 401.673 520.29 374.793 575.469 347.914 622.549 313.264 652.868 277.245 680.407 244.505 690.617 214.256 680.867 194.246 672.928 177.947 651.498 167.737 620.509 165.487 613.349 164.967 607.969 158.737 608.489 151.577 609.009 144.417 615.239 139.037 622.398 139.557 663.008 142.507 692.077 157.887 704.237 182.857 718.907 212.966 707.727 252.425 672.758 293.985 640.148 332.724 590.049 369.723 531.68 398.163 473.301 426.602 413.282 443.262 362.683 445.052 359.663 445.162 356.703 445.212 353.793 445.212Z" fill="#3D3D63" transform="matrix(1.00123 0 0 1 136.161 36.0005)"/><path d="M639.988 341.994C639.988 366.843 619.839 386.993 594.989 386.993 570.14 386.993 549.99 366.843 549.99 341.994 549.99 317.144 570.14 296.995 594.989 296.995 619.839 296.995 639.988 317.144 639.988 341.994Z" fill="#70626F" transform="matrix(1.00123 0 0 1 136.161 36.0005)"/><path d="M594.989 386.993C570.18 386.993 549.99 366.803 549.99 341.994 549.99 317.184 570.18 296.995 594.989 296.995 619.799 296.995 639.988 317.184 639.988 341.994 639.988 366.803 619.799 386.993 594.989 386.993ZM594.989 316.994C581.209 316.994 569.99 328.204 569.99 341.994 569.99 355.783 581.209 366.993 594.989 366.993 608.769 366.993 619.989 355.783 619.989 341.994 619.989 328.204 608.769 316.994 594.989 316.994Z" fill="#3D3D63" transform="matrix(1.00123 0 0 1 136.161 36.0005)"/><path d="M576.989 407.992C576.989 413.512 572.509 417.992 566.99 417.992 561.47 417.992 556.99 413.512 556.99 407.992 556.99 402.473 561.47 397.993 566.99 397.993 572.509 397.993 576.989 402.473 576.989 407.992Z" fill="#70626F" transform="matrix(1.00123 0 0 1 136.161 36.0005)"/><path d="M526.99 264.995C521.32 264.995 515.82 263.885 510.641 261.695 505.641 259.585 501.151 256.555 497.291 252.695 493.431 248.835 490.401 244.346 488.291 239.346 486.101 234.176 484.991 228.676 484.991 223.006L484.991 222.996 484.991 218.096 480.091 217.996C475.241 217.886 470.691 215.926 467.281 212.446 463.871 208.966 461.991 204.366 461.991 199.496 461.991 194.556 463.911 189.907 467.411 186.417 470.901 182.917 475.551 180.997 480.491 180.997 483.411 180.997 486.201 181.657 488.781 182.957 491.251 184.197 493.451 186.017 495.151 188.207L498.141 192.086 502.081 189.177C505.611 186.567 509.501 184.547 513.641 183.157 517.93 181.727 522.42 180.997 526.99 180.997 532.66 180.997 538.16 182.107 543.34 184.297 548.34 186.407 552.83 189.437 556.69 193.296 560.55 197.156 563.58 201.646 565.69 206.646 567.88 211.826 568.99 217.326 568.99 222.996 568.99 228.666 567.88 234.166 565.69 239.346 563.58 244.346 560.55 248.835 556.69 252.695 552.83 256.555 548.34 259.585 543.34 261.695 538.16 263.885 532.66 264.995 526.99 264.995Z" fill="#736574" transform="matrix(1.00123 0 0 1 136.161 36.0005)"/><path d="M526.99 259.995C547.39 259.995 563.99 243.396 563.99 222.996 563.99 202.596 547.39 185.997 526.99 185.997 519.02 185.997 511.431 188.487 505.051 193.206 503.261 194.516 501.181 195.156 499.121 195.156 496.121 195.156 493.161 193.816 491.191 191.266 488.611 187.917 484.711 185.997 480.491 185.997 473.051 185.997 466.991 192.056 466.991 199.496 466.991 206.786 472.921 212.846 480.201 212.996 485.641 213.116 489.991 217.556 489.991 222.996 489.991 243.396 506.591 259.995 526.99 259.995M526.99 269.995C501.031 269.995 479.991 248.955 479.991 222.996 479.991 222.996 479.991 222.996 479.991 222.996 467.241 222.726 456.992 212.306 456.992 199.496 456.992 186.517 467.511 175.997 480.491 175.997 488.071 175.997 494.811 179.587 499.111 185.157 506.911 179.397 516.55 175.997 526.99 175.997 552.95 175.997 573.989 197.036 573.989 222.996 573.989 248.955 552.95 269.995 526.99 269.995Z" fill="#3D3D63" transform="matrix(1.00123 0 0 1 136.161 36.0005)"/><path d="M689.647 100.348 656.958 100.348 655.388 100.028 654.128 99.1682 653.278 97.9082 652.958 96.3482 653.278 94.7783 654.128 93.5183 655.388 92.6683 656.958 92.3483 689.647 92.3483 691.217 92.6683 692.477 93.5183 693.327 94.7783 693.647 96.3482 693.327 97.9082 692.477 99.1682 691.217 100.028 689.647 100.348Z" fill="#1663ED" transform="matrix(1.00123 0 0 1 136.161 36.0005)"/><path d="M673.308 116.688 671.738 116.368 670.478 115.518 669.628 114.258 669.308 112.688 669.308 79.9985 669.628 78.4286 670.478 77.1686 671.738 76.3186 673.308 75.9986 674.868 76.3186 676.128 77.1686 676.988 78.4286 677.308 79.9985 677.308 112.688 676.988 114.258 676.128 115.518 674.868 116.368 673.308 116.688Z" fill="#1663ED" transform="matrix(1.00123 0 0 1 136.161 36.0005)"/><path d="M644.898 251.705 643.328 251.385 642.068 250.535 641.218 249.275 640.898 247.705 640.898 240.386 641.218 238.816 642.068 237.556 643.328 236.706 644.898 236.386 646.468 236.706 647.728 237.556 648.578 238.816 648.898 240.386 648.898 247.705 648.578 249.275 647.728 250.535 646.468 251.385 644.898 251.705Z" fill="#1663ED" transform="matrix(1.00123 0 0 1 136.161 36.0005)"/><path d="M644.898 219.016 643.328 218.696 642.068 217.846 641.218 216.586 640.898 215.016 640.898 207.696 641.218 206.126 642.068 204.866 643.328 204.016 644.898 203.696 646.468 204.016 647.728 204.866 648.578 206.126 648.898 207.696 648.898 215.016 648.578 216.586 647.728 217.846 646.468 218.696 644.898 219.016Z" fill="#1663ED" transform="matrix(1.00123 0 0 1 136.161 36.0005)"/><path d="M632.208 231.696 624.888 231.696 623.319 231.376 622.059 230.526 621.209 229.266 620.889 227.696 621.209 226.126 622.059 224.866 623.319 224.016 624.888 223.696 632.208 223.696 633.778 224.016 635.038 224.866 635.888 226.126 636.208 227.696 635.888 229.266 635.038 230.526 633.778 231.376 632.208 231.696Z" fill="#1663ED" transform="matrix(1.00123 0 0 1 136.161 36.0005)"/><path d="M664.898 231.696 657.578 231.696 656.018 231.376 654.758 230.526 653.898 229.266 653.578 227.696 653.898 226.126 654.758 224.866 656.018 224.016 657.578 223.696 664.898 223.696 666.468 224.016 667.728 224.866 668.588 226.126 668.898 227.696 668.588 229.266 667.728 230.526 666.468 231.376 664.898 231.696Z" fill="#1663ED" transform="matrix(1.00123 0 0 1 136.161 36.0005)"/><path d="M630.748 245.845 629.258 245.555 627.918 244.675 627.038 243.336 626.748 241.846 627.038 240.356 627.918 239.016 633.098 233.846 634.428 232.956 635.928 232.666 637.418 232.956 638.758 233.836 639.638 235.176 639.928 236.666 639.638 238.166 638.758 239.496 633.578 244.675 632.248 245.555 630.748 245.845Z" fill="#1663ED" transform="matrix(1.00123 0 0 1 136.161 36.0005)"/><path d="M653.868 222.726 652.368 222.436 651.038 221.556 650.158 220.226 649.868 218.726 650.158 217.236 651.038 215.896 656.218 210.726 657.548 209.846 659.048 209.556 660.538 209.846 661.868 210.726 662.758 212.056 663.048 213.556 662.758 215.046 661.868 216.386 656.698 221.556 655.358 222.436 653.868 222.726Z" fill="#1663ED" transform="matrix(1.00123 0 0 1 136.161 36.0005)"/><path d="M659.048 245.845 657.548 245.555 656.218 244.675 651.038 239.496 650.158 238.166 649.868 236.666 650.158 235.176 651.038 233.836 652.368 232.956 653.868 232.666 655.358 232.956 656.698 233.836 661.868 239.016 662.758 240.356 663.048 241.846 662.758 243.336 661.868 244.675 660.538 245.555 659.048 245.845Z" fill="#1663ED" transform="matrix(1.00123 0 0 1 136.161 36.0005)"/><path d="M635.928 222.726 634.428 222.436 633.098 221.556 627.918 216.376 627.038 215.046 626.748 213.556 627.038 212.056 627.918 210.726 629.258 209.836 630.748 209.556 632.248 209.836 633.578 210.726 638.758 215.906 639.638 217.236 639.928 218.726 639.638 220.226 638.758 221.556 637.418 222.446 635.928 222.726Z" fill="#1663ED" transform="matrix(1.00123 0 0 1 136.161 36.0005)"/><path d="M765.906 294.765 763.516 295.095 761.396 295.995 759.586 297.395 758.186 299.204 757.286 301.324 756.966 303.714 757.286 306.114 758.186 308.234 759.586 310.044 761.396 311.444 763.516 312.344 765.906 312.664 768.306 312.344 770.426 311.444 772.236 310.044 773.636 308.234 774.536 306.114 774.866 303.714 774.536 301.324 773.636 299.204 772.236 297.395 770.426 295.995 768.306 295.095 765.906 294.765M765.906 286.765 769.006 287.055 771.836 287.825 774.466 289.085 776.846 290.765 778.866 292.785 780.546 295.165 781.806 297.785 782.576 300.624 782.866 303.714 782.576 306.814 781.806 309.644 780.546 312.274 778.866 314.644 776.846 316.664 774.466 318.354 771.846 319.604 769.006 320.374 765.916 320.664 762.816 320.374 759.986 319.604 757.356 318.354 754.976 316.664 752.956 314.654 751.276 312.274 750.026 309.644 749.246 306.814 748.966 303.714 749.246 300.624 750.026 297.785 751.276 295.165 752.956 292.785 754.976 290.765 757.356 289.085 759.986 287.825 762.816 287.055 765.906 286.765Z" fill="#1663ED" transform="matrix(1.00123 0 0 1 136.161 36.0005)"/><path d="M672.278 456.282 670.618 456.522 669.198 457.122 667.948 458.082 666.988 459.322 666.388 460.752 666.158 462.411 666.388 464.071 666.988 465.501 667.948 466.741 669.198 467.711 670.618 468.301 672.278 468.541 673.948 468.301 675.368 467.711 676.618 466.741 677.578 465.501 678.177 464.071 678.407 462.411 678.177 460.752 677.578 459.322 676.608 458.082 675.368 457.122 673.948 456.522 672.278 456.282M672.278 448.282 674.858 448.522 677.228 449.172 679.417 450.212 681.397 451.622 683.077 453.302 684.477 455.282 685.527 457.472 686.167 459.832 686.407 462.411 686.167 464.991 685.527 467.351 684.477 469.541 683.077 471.521 681.397 473.211 679.417 474.611 677.228 475.651 674.858 476.301 672.278 476.541 669.708 476.301 667.338 475.651 665.148 474.611 663.168 473.211 661.488 471.521 660.088 469.541 659.038 467.351 658.398 464.991 658.158 462.411 658.398 459.832 659.038 457.472 660.088 455.282 661.488 453.302 663.168 451.622 665.148 450.212 667.338 449.172 669.708 448.522 672.278 448.282Z" fill="#1663ED" transform="matrix(1.00123 0 0 1 136.161 36.0005)"/><path d="M241.276 181.687 239.026 181.897 236.956 182.467 235.046 183.377 233.316 184.607 231.836 186.077 230.606 187.817 229.696 189.727 229.136 191.796 228.916 194.046 229.136 196.296 229.696 198.356 230.606 200.276 231.836 202.006 233.316 203.486 235.046 204.706 236.956 205.626 239.026 206.186 241.276 206.396 243.526 206.186 245.595 205.626 247.505 204.706 249.245 203.486 250.715 202.006 251.945 200.276 252.855 198.356 253.425 196.296 253.635 194.046 253.425 191.796 252.855 189.727 251.945 187.817 250.715 186.077 249.245 184.607 247.505 183.377 245.595 182.467 243.526 181.897 241.276 181.687M241.276 173.687 244.995 174.037 248.395 174.967 251.555 176.467 254.405 178.487 256.835 180.917 258.855 183.767 260.355 186.927 261.285 190.326 261.635 194.046 261.285 197.756 260.355 201.166 258.855 204.316 256.835 207.176 254.405 209.596 251.555 211.616 248.395 213.126 244.995 214.056 241.276 214.396 237.566 214.056 234.156 213.126 231.006 211.616 228.146 209.596 225.726 207.176 223.696 204.316 222.196 201.166 221.266 197.756 220.916 194.046 221.266 190.326 222.196 186.927 223.696 183.767 225.726 180.917 228.146 178.487 231.006 176.467 234.156 174.967 237.566 174.037 241.276 173.687Z" fill="#1663ED" transform="matrix(1.00123 0 0 1 136.161 36.0005)"/><path d="M201.696 419.772 176.997 419.772 175.427 419.452 174.167 418.592 173.317 417.332 172.997 415.772 173.317 414.202 174.167 412.942 175.427 412.092 176.997 411.772 201.696 411.772 203.266 412.092 204.526 412.942 205.376 414.202 205.696 415.772 205.376 417.332 204.526 418.592 203.266 419.452 201.696 419.772Z" fill="#1663ED" transform="matrix(1.00123 0 0 1 136.161 36.0005)"/><path d="M189.347 431.172 187.777 430.852 186.517 430.002 185.667 428.742 185.347 427.172 185.347 402.463 185.667 400.903 186.517 399.643 187.777 398.783 189.347 398.463 190.916 398.783 192.176 399.643 193.026 400.903 193.346 402.463 193.346 427.172 193.026 428.742 192.176 430.002 190.916 430.852 189.347 431.172Z" fill="#1663ED" transform="matrix(1.00123 0 0 1 136.161 36.0005)"/></g></g></g></g></g></g></g></svg>