<svg width="580" height="542" xmlns="http://www.w3.org/2000/svg" xmlns:xlink="http://www.w3.org/1999/xlink" overflow="hidden"><defs><clipPath id="clip0"><rect x="337" y="89" width="580" height="542"/></clipPath><clipPath id="clip1"><rect x="337" y="90" width="579" height="540"/></clipPath><clipPath id="clip2"><rect x="337" y="90" width="579" height="540"/></clipPath></defs><g clip-path="url(#clip0)" transform="translate(-337 -89)"><g clip-path="url(#clip1)"><g clip-path="url(#clip2)"><g><path d="M688.48 385.33 726.66 423.52C739.55 436.41 739.55 457.3 726.66 470.19L726.66 470.19C713.78 483.07 692.88 483.07 680 470.19L641.81 432C628.92 419.12 628.92 398.22 641.81 385.33L641.81 385.33C654.7 372.45 675.6 372.45 688.48 385.33Z" fill="#B6EDAE" transform="matrix(1.00017 0 0 1 159.513 90)"/><path d="M221.63 91.28 324.87 194.52C335.02 204.67 335.02 221.14 324.87 231.29L324.87 231.29C314.72 241.44 298.25 241.44 288.1 231.29L184.86 128.05C174.71 117.9 174.71 101.44 184.86 91.28L184.86 91.28C195.02 81.13 211.48 81.13 221.63 91.28Z" fill="#B6EDAE" transform="matrix(1.00017 0 0 1 159.513 90)"/><path d="M309.63 58.28 412.87 161.52C423.02 171.67 423.02 188.14 412.87 198.29L412.87 198.29C402.72 208.44 386.25 208.44 376.1 198.29L272.86 95.05C262.71 84.9 262.71 68.44 272.86 58.28L272.86 58.28C283.02 48.13 299.48 48.13 309.63 58.28Z" fill="#B6EDAE" transform="matrix(1.00017 0 0 1 159.513 90)"/><path d="M689.84 291.88 747.12 349.16C754.73 356.77 754.73 369.12 747.12 376.73L747.12 376.73C739.5 384.35 727.16 384.35 719.54 376.73L662.27 319.46C654.65 311.84 654.65 299.5 662.27 291.88L662.27 291.88C669.88 284.27 682.23 284.27 689.84 291.88Z" fill="#B6EDAE" transform="matrix(1.00017 0 0 1 159.513 90)"/><path d="M722 270C722 403.65 613.65 512 480 512 346.35 512 238 403.65 238 270 238 136.35 346.35 28 480 28 613.65 28 722 136.35 722 270Z" fill="#B6EDAE" transform="matrix(1.00017 0 0 1 159.513 90)"/><path d="M556 463 458 463C455.24 463 453 460.76 453 458 453 455.24 455.24 453 458 453L556 453C558.76 453 561 455.24 561 458 561 460.76 558.76 463 556 463Z" fill="#3D3D63" transform="matrix(1.00017 0 0 1 159.513 90)"/><path d="M589 487 480 487C477.24 487 475 484.76 475 482 475 479.24 477.24 477 480 477L589 477C591.76 477 594 479.24 594 482 594 484.76 591.76 487 589 487Z" fill="#3D3D63" transform="matrix(1.00017 0 0 1 159.513 90)"/><path d="M403 463 336 463C333.24 463 331 460.76 331 458 331 455.24 333.24 453 336 453L403 453C405.76 453 408 455.24 408 458 408 460.76 405.76 463 403 463Z" fill="#3D3D63" transform="matrix(1.00017 0 0 1 159.513 90)"/><path d="M701 487 645 487C642.24 487 640 484.76 640 482 640 479.24 642.24 477 645 477L701 477C703.76 477 706 479.24 706 482 706 484.76 703.76 487 701 487Z" fill="#3D3D63" transform="matrix(1.00017 0 0 1 159.513 90)"/><path d="M439 487 283 487C280.24 487 278 484.76 278 482 278 479.24 280.24 477 283 477L439 477C441.76 477 444 479.24 444 482 444 484.76 441.76 487 439 487Z" fill="#3D3D63" transform="matrix(1.00017 0 0 1 159.513 90)"/><path d="M431 463C429.68 463 428.4 462.47 427.46 461.53 426.53 460.6 426 459.32 426 458 426 456.68 426.53 455.4 427.46 454.46 428.39 453.53 429.68 453 431 453 432.32 453 433.61 453.53 434.54 454.46 435.47 455.4 436 456.68 436 458 436 459.32 435.47 460.6 434.54 461.53 433.61 462.47 432.32 463 431 463Z" fill="#3D3D63" transform="matrix(1.00017 0 0 1 159.513 90)"/><path d="M621 487C619.69 487 618.4 486.47 617.46 485.53 616.53 484.6 616 483.32 616 482 616 480.68 616.53 479.4 617.46 478.46 618.39 477.53 619.68 477 621 477 622.32 477 623.61 477.53 624.54 478.46 625.47 479.4 626 480.69 626 482 626 483.32 625.47 484.6 624.54 485.53 623.6 486.47 622.31 487 621 487Z" fill="#3D3D63" transform="matrix(1.00017 0 0 1 159.513 90)"/><path d="M802 312.21C801.49 312.21 800.98 312.02 800.59 311.63L779.37 290.41C778.59 289.63 778.59 288.37 779.37 287.59L800.59 266.37C801.37 265.59 802.63 265.59 803.41 266.37L824.63 287.59C825.41 288.37 825.41 289.63 824.63 290.41L803.41 311.63C803.02 312.02 802.51 312.21 802 312.21ZM783.62 289 802 307.38 820.38 289 802 270.62 783.62 289Z" fill="#B6EDAE" transform="matrix(1.00017 0 0 1 159.513 90)"/><path d="M228.1 218.9C227.59 218.9 227.08 218.71 226.69 218.31L216.79 208.41C216.01 207.63 216.01 206.37 216.79 205.59L226.69 195.69C227.47 194.91 228.74 194.91 229.51 195.69L239.41 205.59C240.19 206.37 240.19 207.63 239.41 208.41L229.51 218.31C229.12 218.71 228.61 218.9 228.1 218.9ZM221.03 207 228.1 214.07 235.17 207 228.1 199.93 221.03 207Z" fill="#B6EDAE" transform="matrix(1.00017 0 0 1 159.513 90)"/><path d="M691 328.9C690.47 328.9 689.96 328.69 689.59 328.31L679.69 318.41C678.91 317.63 678.91 316.37 679.69 315.59L689.59 305.69C690.37 304.91 691.63 304.91 692.41 305.69L702.31 315.59C703.09 316.37 703.09 317.63 702.31 318.41L692.41 328.31C692.04 328.69 691.53 328.9 691 328.9ZM683.93 317 691 324.07 698.07 317 691 309.93 683.93 317Z" fill="#FFFFFF" transform="matrix(1.00017 0 0 1 159.513 90)"/><path d="M544 67.9C543.49 67.9 542.98 67.7 542.59 67.31L532.69 57.41C531.91 56.63 531.91 55.37 532.69 54.59L542.59 44.69C543.37 43.91 544.63 43.91 545.41 44.69L555.31 54.59C556.09 55.37 556.09 56.63 555.31 57.41L545.41 67.31C545.02 67.7 544.51 67.9 544 67.9ZM536.93 56 544 63.07 551.07 56 544 48.93 536.93 56Z" fill="#FFFFFF" transform="matrix(1.00017 0 0 1 159.513 90)"/><path d="M203.5 446 199.73 445.74 196.18 445.01 192.81 443.84 189.61 442.23 186.71 440.27 184.06 437.94 181.73 435.29 179.77 432.38 178.16 429.19 176.99 425.82 176.26 422.27 176 418.5 176.26 414.73 176.99 411.18 178.16 407.81 179.77 404.62 181.73 401.71 184.06 399.06 186.71 396.73 189.61 394.77 192.81 393.16 196.18 391.99 199.73 391.26 203.5 391 207.27 391.26 210.82 391.99 214.19 393.16 217.39 394.77 220.29 396.73 222.94 399.06 225.27 401.71 227.23 404.62 228.84 407.81 230.01 411.18 230.74 414.73 231 418.5 230.74 422.27 230.01 425.82 228.84 429.19 227.23 432.38 225.27 435.29 222.94 437.94 220.29 440.27 217.39 442.23 214.19 443.84 210.82 445.01 207.27 445.74 203.5 446ZM203.5 395 200.28 395.22 197.24 395.84 194.36 396.85 191.63 398.22 189.15 399.9 186.89 401.89 184.9 404.15 183.22 406.63 181.85 409.36 180.84 412.24 180.22 415.28 180 418.5 180.22 421.72 180.84 424.76 181.85 427.64 183.22 430.37 184.9 432.85 186.89 435.11 189.15 437.1 191.63 438.78 194.36 440.15 197.24 441.16 200.28 441.78 203.5 442 206.72 441.78 209.76 441.16 212.64 440.15 215.37 438.78 217.85 437.1 220.11 435.11 222.1 432.85 223.78 430.37 225.15 427.64 226.16 424.76 226.78 421.72 227 418.5 226.78 415.28 226.16 412.24 225.15 409.36 223.78 406.63 222.1 404.15 220.11 401.89 217.85 399.9 215.37 398.22 212.64 396.85 209.76 395.84 206.72 395.22 203.5 395Z" fill="#B6EDAE" transform="matrix(1.00017 0 0 1 159.513 90)"/><path d="M207.5 127 205.04 126.77 202.78 126.15 200.69 125.15 198.8 123.81 197.19 122.2 195.85 120.31 194.85 118.22 194.23 115.96 194 113.5 194.23 111.04 194.85 108.78 195.85 106.69 197.19 104.8 198.8 103.19 200.69 101.85 202.78 100.85 205.04 100.23 207.5 100 209.96 100.23 212.22 100.85 214.31 101.85 216.2 103.19 217.81 104.8 219.15 106.69 220.15 108.78 220.77 111.04 221 113.5 220.77 115.96 220.15 118.22 219.15 120.31 217.81 122.2 216.2 123.81 214.31 125.15 212.22 126.15 209.96 126.77 207.5 127ZM207.5 104 205.77 104.16 204.18 104.6 202.71 105.3 200.79 106.79 199.3 108.71 198.6 110.18 198.16 111.77 198 113.5 198.16 115.23 198.6 116.82 199.3 118.29 200.79 120.21 202.71 121.7 204.18 122.4 205.77 122.84 207.5 123 209.23 122.84 210.82 122.4 212.29 121.7 214.21 120.21 215.7 118.29 216.4 116.82 216.84 115.23 217 113.5 216.84 111.77 216.4 110.18 215.7 108.71 214.21 106.79 212.29 105.3 210.82 104.6 209.23 104.16 207.5 104Z" fill="#FFFFFF" transform="matrix(1.00017 0 0 1 159.513 90)"/><path d="M319.5 464 317.04 463.77 314.78 463.15 312.69 462.15 310.8 460.81 309.19 459.2 307.85 457.31 306.85 455.22 306.23 452.96 306 450.5 306.23 448.04 306.85 445.78 307.85 443.69 309.19 441.8 310.8 440.19 312.69 438.85 314.78 437.85 317.04 437.23 319.5 437 321.96 437.23 324.22 437.85 326.31 438.85 328.2 440.19 329.81 441.8 331.15 443.69 332.15 445.78 332.77 448.04 333 450.5 332.77 452.96 332.15 455.22 331.15 457.31 329.81 459.2 328.2 460.81 326.31 462.15 324.22 463.15 321.96 463.77 319.5 464ZM319.5 441 317.77 441.16 316.18 441.6 314.71 442.3 312.79 443.79 311.3 445.71 310.6 447.18 310.16 448.77 310 450.5 310.16 452.23 310.6 453.82 311.3 455.29 312.79 457.21 314.71 458.7 316.18 459.4 317.77 459.84 319.5 460 321.23 459.84 322.82 459.4 324.29 458.7 326.21 457.21 327.7 455.29 328.4 453.82 328.84 452.23 329 450.5 328.84 448.77 328.4 447.18 327.7 445.71 326.21 443.79 324.29 442.3 322.82 441.6 321.23 441.16 319.5 441Z" fill="#FFFFFF" transform="matrix(1.00017 0 0 1 159.513 90)"/><path d="M447.5 108 445.77 107.84 444.18 107.4 442.71 106.7 440.79 105.21 439.3 103.29 438.6 101.82 438.16 100.23 438 98.5 438.16 96.77 438.6 95.18 439.3 93.71 440.79 91.79 442.71 90.3 444.18 89.6 445.77 89.16 447.5 89 449.23 89.16 450.82 89.6 452.29 90.3 454.21 91.79 455.7 93.71 456.4 95.18 456.84 96.77 457 98.5 456.84 100.23 456.4 101.82 455.7 103.29 454.21 105.21 452.29 106.7 450.82 107.4 449.23 107.84 447.5 108ZM447.5 93 446.01 93.21 444.73 93.75 443.61 94.61 442.75 95.73 442.21 97.01 442 98.5 442.21 99.99 442.75 101.27 443.61 102.39 444.73 103.25 446.01 103.79 447.5 104 448.99 103.79 450.27 103.25 451.39 102.39 452.25 101.27 452.79 99.99 453 98.5 452.79 97.01 452.25 95.73 451.39 94.61 450.27 93.75 448.99 93.21 447.5 93Z" fill="#FFFFFF" transform="matrix(1.00017 0 0 1 159.513 90)"/><path d="M677 64 674.27 63.74 671.76 63.06 669.44 61.95 667.33 60.46 665.54 58.67 664.05 56.56 662.94 54.24 662.26 51.73 662 49 662.26 46.27 662.94 43.76 664.05 41.44 665.54 39.33 667.33 37.54 669.44 36.05 671.76 34.94 674.27 34.26 677 34 679.73 34.26 682.24 34.94 684.56 36.05 686.67 37.54 688.46 39.33 689.95 41.44 691.06 43.76 691.74 46.27 692 49 691.74 51.73 691.06 54.24 689.95 56.56 688.46 58.67 686.67 60.46 684.56 61.95 682.24 63.06 679.73 63.74 677 64ZM677 38 675 38.19 673.16 38.69 671.45 39.5 669.91 40.6 668.6 41.91 667.5 43.45 666.69 45.16 666.19 47 666 49 666.19 51 666.69 52.84 667.5 54.55 668.6 56.09 669.91 57.4 671.45 58.5 673.16 59.31 675 59.81 677 60 679 59.81 680.84 59.31 682.55 58.5 684.09 57.4 685.4 56.09 686.5 54.55 687.31 52.84 687.81 51 688 49 687.81 47 687.31 45.16 686.5 43.45 685.4 41.91 684.09 40.6 682.55 39.5 680.84 38.69 679 38.19 677 38Z" fill="#B6EDAE" transform="matrix(1.00017 0 0 1 159.513 90)"/><path d="M368 46 365.59 45.67 363.46 44.77 361.64 43.36 360.23 41.54 359.33 39.41 359 37 359.33 34.59 360.23 32.46 361.64 30.64 363.46 29.23 365.59 28.33 368 28 370.41 28.33 372.54 29.23 374.36 30.64 375.77 32.46 376.67 34.59 377 37 376.67 39.41 375.77 41.54 374.36 43.36 372.54 44.77 370.41 45.67 368 46ZM368 32 366.64 32.19 365.48 32.68 364.47 33.47 363.68 34.48 363.19 35.64 363 37 363.19 38.36 363.68 39.52 364.47 40.53 365.48 41.32 366.64 41.81 368 42 369.36 41.81 370.52 41.32 371.53 40.53 372.32 39.52 372.81 38.36 373 37 372.81 35.64 372.32 34.48 371.53 33.47 370.52 32.68 369.36 32.19 368 32Z" fill="#B6EDAE" transform="matrix(1.00017 0 0 1 159.513 90)"/><path d="M707 215 704.27 214.74 701.76 214.06 699.44 212.95 697.33 211.46 695.54 209.67 694.05 207.56 692.94 205.24 692.26 202.73 692 200 692.26 197.27 692.94 194.76 694.05 192.44 695.54 190.33 697.33 188.54 699.44 187.05 701.76 185.94 704.27 185.26 707 185 709.73 185.26 712.24 185.94 714.56 187.05 716.67 188.54 718.46 190.33 719.95 192.44 721.06 194.76 721.74 197.27 722 200 721.74 202.73 721.06 205.24 719.95 207.56 718.46 209.67 716.67 211.46 714.56 212.95 712.24 214.06 709.73 214.74 707 215ZM707 189 705 189.19 703.16 189.69 701.45 190.5 699.91 191.6 698.6 192.91 697.5 194.45 696.69 196.16 696.19 198 696 200 696.19 202 696.69 203.84 697.5 205.55 698.6 207.09 699.91 208.4 701.45 209.5 703.16 210.31 705 210.81 707 211 709 210.81 710.84 210.31 712.55 209.5 714.09 208.4 715.4 207.09 716.5 205.55 717.31 203.84 717.81 202 718 200 717.81 198 717.31 196.16 716.5 194.45 715.4 192.91 714.09 191.6 712.55 190.5 710.84 189.69 709 189.19 707 189Z" fill="#FFFFFF" transform="matrix(1.00017 0 0 1 159.513 90)"/><path d="M658 437 302 437C298.69 437 296 434.31 296 431 296 427.69 298.69 425 302 425L658 425C661.31 425 664 427.69 664 431 664 434.31 661.31 437 658 437Z" fill="#3D3D63" transform="matrix(1.00017 0 0 1 159.513 90)"/><path d="M332.1 130.22 399.9 130.22C412.38 130.22 422.5 140.34 422.5 152.82L422.5 427.78 422.5 427.78 309.5 427.78 309.5 427.78 309.5 152.82C309.5 140.34 319.62 130.22 332.1 130.22Z" fill="#FDE174" transform="matrix(1.00017 0 0 1 159.513 90)"/><path d="M414 437 318 437C311.38 437 306 431.62 306 425L306 145C306 131.77 316.77 121 330 121L402 121C415.23 121 426 131.77 426 145L426 425C426 431.62 420.62 437 414 437ZM330 133C323.38 133 318 138.38 318 145L318 425 414.01 425 414 145C414 138.38 408.62 133 402 133L330 133Z" fill="#3D3D63" transform="matrix(1.00017 0 0 1 159.513 90)"/><path d="M346 146 386 146 389.1 146.29 391.95 147.06 394.58 148.32 396.97 150.01 398.99 152.03 400.68 154.42 401.94 157.05 402.71 159.9 403 163 403 316 402.71 319.1 401.94 321.95 400.68 324.58 398.99 326.97 396.97 328.99 394.58 330.68 391.95 331.94 389.1 332.71 386 333 346 333 342.9 332.71 340.05 331.94 337.42 330.68 335.03 328.99 333.01 326.97 331.32 324.58 330.06 321.95 329.29 319.1 329 316 329 163 329.29 159.9 330.06 157.05 331.32 154.42 333.01 152.03 335.03 150.01 337.42 148.32 340.05 147.06 342.9 146.29 346 146Z" fill="#F4F1EC" transform="matrix(1.00017 0 0 1 159.513 90)"/><path d="M386 333 346 333 342.9 332.71 340.06 331.93 337.43 330.68 335.04 328.98 333.02 326.96 331.32 324.57 330.07 321.94 329.29 319.1 329 316 329 163 329.29 159.9 330.07 157.06 331.32 154.43 333.02 152.04 335.04 150.02 337.43 148.32 340.06 147.07 342.9 146.29 346 146 386 146 389.1 146.29 391.94 147.07 394.57 148.32 396.96 150.02 398.98 152.04 400.68 154.43 401.93 157.06 402.71 159.9 403 163 403 316 402.71 319.1 401.93 321.94 400.68 324.57 398.98 326.96 396.96 328.98 394.57 330.68 391.94 331.93 389.1 332.71 386 333ZM346 158 344.64 158.19 343.48 158.68 342.47 159.47 341.68 160.48 341.19 161.64 341 163 341 316 341.19 317.36 341.68 318.52 342.47 319.53 343.48 320.32 344.64 320.81 346 321 386 321 387.36 320.81 388.52 320.32 389.53 319.53 390.32 318.52 390.81 317.36 391 316 391 163 390.81 161.64 390.32 160.48 389.53 159.47 388.52 158.68 387.36 158.19 386 158 346 158Z" fill="#3D3D63" transform="matrix(1.00017 0 0 1 159.513 90)"/><path d="M380.5 185.5 351.5 185.5C348.74 185.5 346.5 183.26 346.5 180.5 346.5 177.74 348.74 175.5 351.5 175.5L380.5 175.5C383.26 175.5 385.5 177.74 385.5 180.5 385.5 183.26 383.26 185.5 380.5 185.5Z" fill="#3D3D63" transform="matrix(1.00017 0 0 1 159.513 90)"/><path d="M380.5 201.5 351.5 201.5C348.74 201.5 346.5 199.26 346.5 196.5 346.5 193.74 348.74 191.5 351.5 191.5L380.5 191.5C383.26 191.5 385.5 193.74 385.5 196.5 385.5 199.26 383.26 201.5 380.5 201.5Z" fill="#3D3D63" transform="matrix(1.00017 0 0 1 159.513 90)"/><path d="M380.5 217.5 351.5 217.5C348.74 217.5 346.5 215.26 346.5 212.5 346.5 209.74 348.74 207.5 351.5 207.5L380.5 207.5C383.26 207.5 385.5 209.74 385.5 212.5 385.5 215.26 383.26 217.5 380.5 217.5Z" fill="#3D3D63" transform="matrix(1.00017 0 0 1 159.513 90)"/><path d="M380.5 293.5 351.5 293.5C348.74 293.5 346.5 291.26 346.5 288.5 346.5 285.74 348.74 283.5 351.5 283.5L380.5 283.5C383.26 283.5 385.5 285.74 385.5 288.5 385.5 291.26 383.26 293.5 380.5 293.5Z" fill="#3D3D63" transform="matrix(1.00017 0 0 1 159.513 90)"/><path d="M544.96 127.44 613.13 117.86C625.68 116.1 637.28 124.84 639.05 137.39L677.9 413.88 677.9 413.88 564.28 429.84 564.28 429.84 525.42 153.36C523.66 140.81 532.4 129.21 544.96 127.44Z" fill="#FDE174" transform="matrix(1.00017 0 0 1 159.513 90)"/><path d="M572.78 435.45C566.84 435.45 561.73 431.01 560.9 425.12L521.93 147.84C521.04 141.49 522.67 135.18 526.53 130.06 530.39 124.94 536.01 121.63 542.36 120.73L613.66 110.71C614.77 110.56 615.9 110.48 617.02 110.48 628.9 110.48 639.11 119.36 640.77 131.14L679.73 408.42C680.18 411.59 679.36 414.75 677.43 417.31 675.5 419.87 672.7 421.52 669.52 421.97L574.46 435.33C573.9 435.41 573.34 435.45 572.78 435.45ZM617.02 122.48C616.46 122.48 615.89 122.52 615.33 122.6L544.03 132.62C540.86 133.06 538.05 134.72 536.12 137.28 534.19 139.84 533.37 143 533.82 146.17L572.79 423.45 667.85 410.09 628.88 132.81C628.06 126.92 622.96 122.48 617.02 122.48Z" fill="#3D3D63" transform="matrix(1.00017 0 0 1 159.513 90)"/><path d="M561.68 143.27 601.3 137.7 604.41 137.55 607.33 137.92 610.12 138.8 612.71 140.14 615 141.87 617 143.99 618.61 146.43 619.78 149.13 620.5 152.17 641.79 303.68 641.93 306.79 641.56 309.71 640.68 312.5 639.34 315.1 637.62 317.38 635.49 319.39 633.06 321 630.35 322.16 627.32 322.88 587.71 328.45 584.6 328.59 581.67 328.22 578.89 327.34 576.29 326 574.01 324.28 572 322.15 570.39 319.72 569.23 317.01 568.51 313.98 547.22 162.47 547.07 159.35 547.44 156.43 548.32 153.65 549.66 151.05 551.38 148.76 553.51 146.76 555.94 145.15 558.65 143.98 561.68 143.27Z" fill="#F4F1EC" transform="matrix(1.00017 0 0 1 159.513 90)"/><path d="M585.33 328.61 582.54 328.37 579.94 327.73 577.49 326.67 575.23 325.25 573.25 323.52 571.52 321.48 570.14 319.2 569.13 316.71 568.51 313.98 547.22 162.47 547.07 159.36 547.44 156.44 548.32 153.65 549.67 151.05 551.39 148.77 553.52 146.76 555.95 145.15 558.66 143.98 561.68 143.27 601.3 137.7 603.68 137.53 606.46 137.77 609.07 138.42 611.52 139.47 613.78 140.9 615.76 142.62 617.48 144.66 618.87 146.95 619.87 149.44 620.5 152.17 641.79 303.68 641.96 305.94 641.83 308.14 641.42 310.3 640.73 312.39 639.77 314.38 638.53 316.27 637.05 317.99 635.41 319.46 633.59 320.7 631.62 321.69 629.54 322.42 627.32 322.88 587.71 328.45 585.33 328.61ZM603.68 149.53 602.97 149.58 563.35 155.15 562.04 155.53 560.95 156.17 560.06 157.09 559.42 158.21 559.1 159.43 559.1 160.8 580.39 312.31 580.77 313.6 581.41 314.68 582.34 315.59 583.46 316.23 584.68 316.56 586.04 316.56 625.65 311 626.93 310.64 628.02 310 628.95 309.05 629.6 307.9 629.92 306.68 629.91 305.35 608.61 153.84 608.04 152.12 606.94 150.76 605.45 149.86 603.68 149.53Z" fill="#3D3D63" transform="matrix(1.00017 0 0 1 159.513 90)"/><path d="M571.93 181.66C569.47 181.66 567.33 179.86 566.98 177.36 566.6 174.63 568.5 172.1 571.24 171.71L599.96 167.68C602.69 167.29 605.22 169.2 605.6 171.93 605.99 174.67 604.08 177.19 601.35 177.58L572.63 181.62C572.39 181.65 572.16 181.66 571.93 181.66Z" fill="#3D3D63" transform="matrix(1.00017 0 0 1 159.513 90)"/><path d="M574.15 197.51C571.7 197.51 569.56 195.7 569.21 193.2 568.82 190.47 570.73 187.94 573.46 187.56L602.18 183.52C604.92 183.14 607.45 185.04 607.83 187.78 608.21 190.51 606.31 193.04 603.57 193.42L574.85 197.46C574.62 197.49 574.38 197.51 574.15 197.51Z" fill="#3D3D63" transform="matrix(1.00017 0 0 1 159.513 90)"/><path d="M576.38 213.35C573.93 213.35 571.78 211.55 571.43 209.05 571.05 206.31 572.96 203.78 575.69 203.4L604.41 199.37C607.15 198.98 609.67 200.89 610.05 203.62 610.44 206.35 608.53 208.88 605.8 209.27L577.08 213.3C576.85 213.34 576.61 213.35 576.38 213.35Z" fill="#3D3D63" transform="matrix(1.00017 0 0 1 159.513 90)"/><path d="M586.96 288.61C584.5 288.61 582.36 286.81 582.01 284.31 581.63 281.57 583.53 279.05 586.27 278.66L614.99 274.63C617.73 274.24 620.25 276.15 620.63 278.88 621.02 281.62 619.11 284.14 616.38 284.53L587.66 288.56C587.42 288.6 587.19 288.61 586.96 288.61Z" fill="#3D3D63" transform="matrix(1.00017 0 0 1 159.513 90)"/><path d="M439.9 129.34 508.1 129.34C520.66 129.34 530.83 139.51 530.83 152.07L530.83 428.66 530.83 428.66 417.17 428.66 417.17 428.66 417.17 152.07C417.17 139.51 427.34 129.34 439.9 129.34Z" fill="#F6716F" transform="matrix(1.00017 0 0 1 159.513 90)"/><path d="M522 437 426 437C419.38 437 414 431.62 414 425L414 145C414 131.77 424.77 121 438 121L510 121C523.23 121 534 131.77 534 145L534 425C534 431.62 528.62 437 522 437ZM438 133C431.38 133 426 138.38 426 145L426 425 522.01 425 522 145C522 138.38 516.62 133 510 133L438 133Z" fill="#3D3D63" transform="matrix(1.00017 0 0 1 159.513 90)"/><path d="M454 146 494 146 497.1 146.29 499.95 147.06 502.58 148.32 504.97 150.01 506.99 152.03 508.68 154.42 509.94 157.05 510.71 159.9 511 163 511 316 510.71 319.1 509.94 321.95 508.68 324.58 506.99 326.97 504.97 328.99 502.58 330.68 499.95 331.94 497.1 332.71 494 333 454 333 450.9 332.71 448.05 331.94 445.42 330.68 443.03 328.99 441.01 326.97 439.32 324.58 438.06 321.95 437.29 319.1 437 316 437 163 437.29 159.9 438.06 157.05 439.32 154.42 441.01 152.03 443.03 150.01 445.42 148.32 448.05 147.06 450.9 146.29 454 146Z" fill="#F4F1EC" transform="matrix(1.00017 0 0 1 159.513 90)"/><path d="M494 333 454 333 450.9 332.71 448.06 331.93 445.43 330.68 443.04 328.98 441.02 326.96 439.32 324.57 438.07 321.94 437.29 319.1 437 316 437 163 437.29 159.9 438.07 157.06 439.32 154.43 441.02 152.04 443.04 150.02 445.43 148.32 448.06 147.07 450.9 146.29 454 146 494 146 497.1 146.29 499.94 147.07 502.57 148.32 504.96 150.02 506.98 152.04 508.68 154.43 509.93 157.06 510.71 159.9 511 163 511 316 510.71 319.1 509.93 321.94 508.68 324.57 506.98 326.96 504.96 328.98 502.57 330.68 499.94 331.93 497.1 332.71 494 333ZM454 158 452.64 158.19 451.48 158.68 450.47 159.47 449.68 160.48 449.19 161.64 449 163 449 316 449.19 317.36 449.68 318.52 450.47 319.53 451.48 320.32 452.64 320.81 454 321 494 321 495.36 320.81 496.52 320.32 497.53 319.53 498.32 318.52 498.81 317.36 499 316 499 163 498.81 161.64 498.32 160.48 497.53 159.47 496.52 158.68 495.36 158.19 494 158 454 158Z" fill="#3D3D63" transform="matrix(1.00017 0 0 1 159.513 90)"/><path d="M488.5 185.5 459.5 185.5C456.74 185.5 454.5 183.26 454.5 180.5 454.5 177.74 456.74 175.5 459.5 175.5L488.5 175.5C491.26 175.5 493.5 177.74 493.5 180.5 493.5 183.26 491.26 185.5 488.5 185.5Z" fill="#3D3D63" transform="matrix(1.00017 0 0 1 159.513 90)"/><path d="M488.5 201.5 459.5 201.5C456.74 201.5 454.5 199.26 454.5 196.5 454.5 193.74 456.74 191.5 459.5 191.5L488.5 191.5C491.26 191.5 493.5 193.74 493.5 196.5 493.5 199.26 491.26 201.5 488.5 201.5Z" fill="#3D3D63" transform="matrix(1.00017 0 0 1 159.513 90)"/><path d="M488.5 217.5 459.5 217.5C456.74 217.5 454.5 215.26 454.5 212.5 454.5 209.74 456.74 207.5 459.5 207.5L488.5 207.5C491.26 207.5 493.5 209.74 493.5 212.5 493.5 215.26 491.26 217.5 488.5 217.5Z" fill="#3D3D63" transform="matrix(1.00017 0 0 1 159.513 90)"/><path d="M488.5 293.5 459.5 293.5C456.74 293.5 454.5 291.26 454.5 288.5 454.5 285.74 456.74 283.5 459.5 283.5L488.5 283.5C491.26 283.5 493.5 285.74 493.5 288.5 493.5 291.26 491.26 293.5 488.5 293.5Z" fill="#3D3D63" transform="matrix(1.00017 0 0 1 159.513 90)"/><path d="M318 393 414 393 414 425 318 425Z" fill="#F2D053" transform="matrix(1.00017 0 0 1 159.513 90)"/><path d="M426 395 522 395 522 427 426 427Z" fill="#EC5232" transform="matrix(1.00017 0 0 1 159.513 90)"/><path d="M667.73 410.17 572.66 423.53 568.21 391.84 663.28 378.48Z" fill="#F2D053" transform="matrix(1.00017 0 0 1 159.513 90)"/><path d="M375.5 408 375.5 400 417.5 400 417.5 408Z" fill="#FFB038" transform="matrix(1.00017 0 0 1 159.513 90)"/><path d="M366.5 416 366.5 408 392.5 408 392.5 416Z" fill="#FFB038" transform="matrix(1.00017 0 0 1 159.513 90)"/><path d="M482.5 410 482.5 402 524.5 402 524.5 410Z" fill="#FF6848" transform="matrix(1.00017 0 0 1 159.513 90)"/><path d="M473.5 418 473.5 410 499.5 410 499.5 418Z" fill="#FF6848" transform="matrix(1.00017 0 0 1 159.513 90)"/><path d="M334.5 408 334.5 400 376.5 400 376.5 408Z" fill="#FFB038" transform="matrix(1.00017 0 0 1 159.513 90)"/><path d="M325.5 416 325.5 408 351.5 408 351.5 416Z" fill="#FFB038" transform="matrix(1.00017 0 0 1 159.513 90)"/><path d="M624.93 393.91 665.3 382.33 667.51 390.02 627.13 401.6Z" fill="#FFB038" transform="matrix(1.00017 0 0 1 159.513 90)"/><path d="M616.9 401.99 641.89 394.82 644.1 402.51 619.1 409.68Z" fill="#FFB038" transform="matrix(1.00017 0 0 1 159.513 90)"/><path d="M584.33 399.61 624.7 388.04 626.91 395.73 586.53 407.3Z" fill="#FFB038" transform="matrix(1.00017 0 0 1 159.513 90)"/><path d="M576.3 407.7 601.29 400.53 603.5 408.22 578.5 415.39Z" fill="#FFB038" transform="matrix(1.00017 0 0 1 159.513 90)"/><path d="M441.5 410 441.5 402 483.5 402 483.5 410Z" fill="#FF6848" transform="matrix(1.00017 0 0 1 159.513 90)"/><path d="M432.5 418 432.5 410 458.5 410 458.5 418Z" fill="#FF6848" transform="matrix(1.00017 0 0 1 159.513 90)"/><path d="M397 375 396.7 379.26 395.89 383.27 394.56 387.07 392.75 390.66 390.54 393.94 387.92 396.92 384.94 399.54 381.66 401.75 378.07 403.56 374.27 404.89 370.26 405.7 366 406 361.74 405.7 357.73 404.89 353.93 403.56 350.34 401.75 347.06 399.54 344.08 396.92 341.46 393.94 339.25 390.66 337.44 387.07 336.11 383.27 335.3 379.26 335 375 335.3 370.74 336.11 366.73 337.44 362.93 339.25 359.34 341.46 356.06 344.08 353.08 347.06 350.46 350.34 348.25 353.93 346.44 357.73 345.11 361.74 344.3 366 344 370.26 344.3 374.27 345.11 378.07 346.44 381.66 348.25 384.94 350.46 387.92 353.08 390.54 356.06 392.75 359.34 394.56 362.93 395.89 366.73 396.7 370.74 397 375Z" fill="#B6BDC6" transform="matrix(1.00017 0 0 1 159.513 90)"/><path d="M366 406 361.75 405.7 357.74 404.89 353.95 403.56 350.35 401.75 347.07 399.54 344.09 396.91 341.46 393.93 339.25 390.65 337.44 387.06 336.11 383.26 335.3 379.25 335 375 335.3 370.75 336.11 366.74 337.44 362.94 339.25 359.35 341.46 356.07 344.09 353.09 347.07 350.46 350.35 348.25 353.95 346.44 357.74 345.11 361.75 344.3 366 344 370.25 344.3 374.26 345.11 378.05 346.44 381.65 348.25 384.93 350.46 387.91 353.09 390.54 356.07 392.75 359.35 394.56 362.94 395.89 366.74 396.7 370.75 397 375 396.7 379.25 395.89 383.26 394.56 387.06 392.75 390.65 390.54 393.93 387.91 396.91 384.93 399.54 381.65 401.75 378.05 403.56 374.26 404.89 370.25 405.7 366 406ZM366 356 362.54 356.32 359.36 357.19 356.42 358.6 353.75 360.49 351.49 362.75 349.6 365.42 348.19 368.36 347.32 371.54 347 375 347.32 378.46 348.19 381.64 349.6 384.58 351.49 387.25 353.75 389.51 356.42 391.4 359.36 392.81 362.54 393.68 366 394 369.46 393.68 372.64 392.81 375.58 391.4 378.25 389.51 380.51 387.25 382.4 384.58 383.81 381.64 384.68 378.46 385 375 384.68 371.54 383.81 368.36 382.4 365.42 380.51 362.75 378.25 360.49 375.58 358.6 372.64 357.19 369.46 356.32 366 356Z" fill="#3D3D63" transform="matrix(1.00017 0 0 1 159.513 90)"/><path d="M505 375 504.7 379.26 503.89 383.27 502.56 387.07 500.75 390.66 498.54 393.94 495.92 396.92 492.94 399.54 489.66 401.75 486.07 403.56 482.27 404.89 478.26 405.7 474 406 469.74 405.7 465.73 404.89 461.93 403.56 458.34 401.75 455.06 399.54 452.08 396.92 449.46 393.94 447.25 390.66 445.44 387.07 444.11 383.27 443.3 379.26 443 375 443.3 370.74 444.11 366.73 445.44 362.93 447.25 359.34 449.46 356.06 452.08 353.08 455.06 350.46 458.34 348.25 461.93 346.44 465.73 345.11 469.74 344.3 474 344 478.26 344.3 482.27 345.11 486.07 346.44 489.66 348.25 492.94 350.46 495.92 353.08 498.54 356.06 500.75 359.34 502.56 362.93 503.89 366.73 504.7 370.74 505 375Z" fill="#B6BDC6" transform="matrix(1.00017 0 0 1 159.513 90)"/><path d="M474 406 469.75 405.7 465.74 404.89 461.95 403.56 458.35 401.75 455.07 399.54 452.09 396.91 449.46 393.93 447.25 390.65 445.44 387.06 444.11 383.26 443.3 379.25 443 375 443.3 370.75 444.11 366.74 445.44 362.94 447.25 359.35 449.46 356.07 452.09 353.09 455.07 350.46 458.35 348.25 461.95 346.44 465.74 345.11 469.75 344.3 474 344 478.25 344.3 482.26 345.11 486.06 346.44 489.65 348.25 492.93 350.46 495.91 353.09 498.54 356.07 500.75 359.35 502.56 362.94 503.89 366.74 504.7 370.75 505 375 504.7 379.25 503.89 383.26 502.56 387.06 500.75 390.65 498.54 393.93 495.91 396.91 492.93 399.54 489.65 401.75 486.06 403.56 482.26 404.89 478.25 405.7 474 406ZM474 356 470.54 356.32 467.36 357.19 464.42 358.6 461.75 360.49 459.49 362.75 457.6 365.42 456.19 368.36 455.32 371.54 455 375 455.32 378.46 456.19 381.64 457.6 384.58 459.49 387.25 461.75 389.51 464.42 391.4 467.36 392.81 470.54 393.68 474 394 477.46 393.68 480.64 392.81 483.58 391.4 486.25 389.51 488.51 387.25 490.4 384.58 491.81 381.64 492.68 378.46 493 375 492.68 371.54 491.81 368.36 490.4 365.42 488.51 362.75 486.25 360.49 483.58 358.6 480.64 357.19 477.46 356.32 474 356Z" fill="#3D3D63" transform="matrix(1.00017 0 0 1 159.513 90)"/><path d="M644.06 362.94 644.36 367.2 644.11 371.28 643.33 375.23 642.03 379.04 640.3 382.59 638.12 385.91 635.53 388.92 632.6 391.57 629.29 393.86 625.71 395.7 621.85 397.07 617.68 397.95 613.42 398.25 609.33 398 605.39 397.22 601.57 395.93 598.02 394.19 594.7 392.01 591.69 389.42 589.05 386.49 586.75 383.18 584.91 379.6 583.55 375.74 582.66 371.57 582.36 367.31 582.61 363.23 583.4 359.28 584.69 355.46 586.42 351.91 588.6 348.6 591.19 345.58 594.12 342.94 597.44 340.65 601.01 338.8 604.87 337.44 609.05 336.55 613.3 336.25 617.39 336.5 621.33 337.29 625.15 338.58 628.7 340.31 632.02 342.5 635.03 345.08 637.67 348.02 639.97 351.33 641.81 354.91 643.17 358.76 644.06 362.94Z" fill="#B6BDC6" transform="matrix(1.00017 0 0 1 159.513 90)"/><path d="M613.33 398.26 609.51 398.01 605.86 397.33 602.36 396.23 599.02 394.71 595.92 392.84 593.04 390.62 590.44 388.07 588.16 385.26 586.2 382.16 584.61 378.84 583.44 375.32 582.66 371.57 582.36 367.32 582.61 363.24 583.4 359.29 584.69 355.48 586.43 351.92 588.61 348.61 591.2 345.59 594.14 342.94 597.45 340.65 601.03 338.8 604.88 337.44 609.05 336.55 613.39 336.25 617.21 336.49 620.86 337.17 624.36 338.28 627.7 339.8 630.8 341.66 633.68 343.89 636.28 346.43 638.56 349.24 640.52 352.35 642.11 355.66 643.29 359.18 644.06 362.94 644.36 367.19 644.11 371.27 643.32 375.22 642.03 379.03 640.29 382.58 638.11 385.9 635.52 388.92 632.58 391.56 629.27 393.86 625.7 395.7 621.84 397.07 617.68 397.95 613.33 398.26ZM613.39 348.25 610.72 348.44 607.33 349.24 604.31 350.54 601.59 352.34 599.21 354.59 597.28 357.14 595.78 360.05 594.8 363.16 594.38 366.42 594.55 369.9 595.24 372.95 596.36 375.73 597.91 378.28 599.84 380.57 602.05 382.49 604.57 384.09 607.31 385.27 610.22 385.99 613.33 386.26 616 386.07 618.48 385.55 620.81 384.74 623.01 383.63 625.04 382.25 626.88 380.61 628.54 378.69 629.92 376.57 631 374.35 631.77 372.01 632.22 369.6 632.36 367.13 632.18 364.61 631.48 361.56 630.36 358.77 628.81 356.22 626.89 353.94 624.67 352.01 622.15 350.42 619.41 349.24 616.5 348.51 613.39 348.25Z" fill="#3D3D63" transform="matrix(1.00017 0 0 1 159.513 90)"/></g></g></g></g></svg>